<svg xmlns="http://www.w3.org/2000/svg" viewBox="0 0 198.51 198.51"  xmlns:v="https://vecta.io/nano"><path d="M0 0h198.51v198.51H0z" fill="#18a3ac"/><path d="M177.31 58.28v-9h-36.1v31c-1.43-6.57-7.06-8.92-13.13-10.41l-12.55-3.09c-2.17-.5-5.48-1.36-5.48-5.38 0-4.66 4.88-6.17 9-6.17 9.41 0 10.27 5.45 10.55 7.75h10.34c-.07-6.31-4.31-16.65-20.1-16.65-16.49 0-19.7 9.82-19.79 15.61-1.54 5.42-5.47 8.3-10.94 8.3-9 0-12.57-8.2-12.57-17.31 0-14.35 7.48-17.74 12.57-17.74 8.77 0 10.39 5.72 11.24 8.76h10.6c-.57-7.48-6.71-17.94-21.9-17.94-10.75 0-19.57 6.11-22.38 18.13V27.1H55.75v33.7c0 6.19-3 9.75-10.31 9.75-5 0-9.13-3.13-9.13-10.25V27.1H25.43V61c.13 5.13 1.19 9.25 4 12.4 4.56 5 11.55 6.18 16.24 6.18 12.52 0 20.54-5.44 21-18.08 2.71 11.84 11.19 18 22.25 18 7.13 0 12.26-2.41 15.77-6.47 3.09 2.36 7.37 3.36 11.73 4.37l5.53 1.29c5.45 1.3 9.33 2.38 9.33 6.39 0 5.46-5.67 6.68-10.77 6.68-9.41 0-10.84-5.46-10.92-8.32H99.23c0 6.37 3.22 17.21 22 17.21 4.12 0 17.59-1.13 20-13.07v13h10.57V78.71h22.33v-9H151.8V58.28zM30.06 95.78h13.8v2.43h-11.1v6h9.76v2.37h-9.76v9h-2.7zm25.31 5.78a5.54 5.54 0 0 1 2.2 1.88 6.66 6.66 0 0 1 1 2.56 17.23 17.23 0 0 1 .21 3.19H48.21a6.17 6.17 0 0 0 1 3.55 3.45 3.45 0 0 0 3 1.34 3.83 3.83 0 0 0 3-1.27 4.14 4.14 0 0 0 .89-1.7h2.4a5 5 0 0 1-.63 1.79 6.87 6.87 0 0 1-1.19 1.6A5.66 5.66 0 0 1 54 116a7.94 7.94 0 0 1-2 .22 6.07 6.07 0 0 1-4.56-2 7.72 7.72 0 0 1-1.87-5.52 8.33 8.33 0 0 1 1.91-5.7 6.19 6.19 0 0 1 4.92-2.18 6.57 6.57 0 0 1 2.97.74zm.88 5.7a6.41 6.41 0 0 0-.69-2.54 3.5 3.5 0 0 0-3.31-1.72 3.69 3.69 0 0 0-2.8 1.22 4.56 4.56 0 0 0-1.19 3.08zm6.08-10.14h2.46v4h2.32v2h-2.32v9.47a1 1 0 0 0 .51 1 2.19 2.19 0 0 0 1 .15h.38.48v1.93a6.23 6.23 0 0 1-.88.18 7.55 7.55 0 0 1-1 0 2.63 2.63 0 0 1-2.31-.87 3.85 3.85 0 0 1-.61-2.27v-9.6h-2v-2h2zm14.98 9.77a1.34 1.34 0 0 0 1.13-.7 2.15 2.15 0 0 0 .16-.94 2 2 0 0 0-.89-1.82 4.77 4.77 0 0 0-2.53-.56 3.2 3.2 0 0 0-2.7 1 3.39 3.39 0 0 0-.58 1.7h-2.28a4.24 4.24 0 0 1 1.74-3.74 7.13 7.13 0 0 1 3.88-1 7.89 7.89 0 0 1 4.15 1 3.31 3.31 0 0 1 1.58 3v8.35a1.08 1.08 0 0 0 .15.61.75.75 0 0 0 .66.23h.37l.43-.06v1.8a5.46 5.46 0 0 1-.87.2 5.61 5.61 0 0 1-.81 0 2 2 0 0 1-1.83-.9 3.52 3.52 0 0 1-.42-1.34 6 6 0 0 1-2.14 1.69 6.58 6.58 0 0 1-3.07.72 4.62 4.62 0 0 1-3.3-1.22 4.08 4.08 0 0 1-1.27-3.07 3.93 3.93 0 0 1 1.25-3.12 6 6 0 0 1 3.31-1.36zm-5.13 6.58a2.86 2.86 0 0 0 1.83.61 5.5 5.5 0 0 0 2.49-.6 3.33 3.33 0 0 0 2-3.23v-2a4.28 4.28 0 0 1-1.15.48A8.5 8.5 0 0 1 76 109l-1.48.19a5.86 5.86 0 0 0-2 .55 2.17 2.17 0 0 0-1.13 2 2 2 0 0 0 .79 1.73zM85 95.78h2.44v19.88H85zm-40.73 28.75v2.37h-6.71v17.52h-2.72V126.9h-6.7v-2.37zm1.2 5.39h2.32v2.51a5.35 5.35 0 0 1 1.39-1.78 3.61 3.61 0 0 1 2.56-1.05H52h.55v2.58l-.4-.06h-.39a3.46 3.46 0 0 0-2.83 1.18 4.13 4.13 0 0 0-1 2.73v8.34h-2.46zm18.12.4a5.53 5.53 0 0 1 2.2 1.88 6.51 6.51 0 0 1 1 2.55A16.31 16.31 0 0 1 67 138H56.42a6.25 6.25 0 0 0 1 3.55 3.44 3.44 0 0 0 3 1.34 3.85 3.85 0 0 0 3-1.27 4.33 4.33 0 0 0 .89-1.7h2.4a5.24 5.24 0 0 1-.63 1.78 6.5 6.5 0 0 1-1.2 1.61 5.59 5.59 0 0 1-2.72 1.46 8.5 8.5 0 0 1-2 .22 6.07 6.07 0 0 1-4.56-2 7.71 7.71 0 0 1-1.87-5.52 8.38 8.38 0 0 1 1.88-5.67 6.19 6.19 0 0 1 4.93-2.18 6.57 6.57 0 0 1 3.05.7zm.88 5.69a6.35 6.35 0 0 0-.69-2.53 3.51 3.51 0 0 0-3.32-1.76 3.68 3.68 0 0 0-2.79 1.21 4.6 4.6 0 0 0-1.19 3.07zm13.36-.36a1.33 1.33 0 0 0 1.12-.71 2.1 2.1 0 0 0 .16-.93 2 2 0 0 0-.88-1.82 4.79 4.79 0 0 0-2.53-.56 3.23 3.23 0 0 0-2.71 1 3.49 3.49 0 0 0-.58 1.7h-2.27a4.18 4.18 0 0 1 1.74-3.74 7.1 7.1 0 0 1 3.87-1.05 7.87 7.87 0 0 1 4.15 1 3.31 3.31 0 0 1 1.58 3v8.35a1.1 1.1 0 0 0 .16.61.76.76 0 0 0 .66.23h.36l.43-.06v1.8a5.16 5.16 0 0 1-.86.2 5.86 5.86 0 0 1-.81 0 2 2 0 0 1-1.83-.89 3.41 3.41 0 0 1-.42-1.34 6.25 6.25 0 0 1-2.17 1.75 6.61 6.61 0 0 1-3.07.72 4.59 4.59 0 0 1-3.3-1.22 4.09 4.09 0 0 1-1.28-3.07 3.94 3.94 0 0 1 1.26-3.12 6 6 0 0 1 3.3-1.37zm-5.13 6.58a2.87 2.87 0 0 0 1.82.61 5.57 5.57 0 0 0 2.5-.6 3.34 3.34 0 0 0 2-3.23v-2a4.28 4.28 0 0 1-1.15.48 12 12 0 0 1-1.38.27l-1.47.19a5.72 5.72 0 0 0-2 .55 2.16 2.16 0 0 0-1.14 2 2 2 0 0 0 .82 1.73zM86 125.87h2.47v4h2.31v2h-2.35v9.47a1 1 0 0 0 .51 1 2.19 2.19 0 0 0 1 .15h.38.47v1.93a6.09 6.09 0 0 1-.87.18l-1 .05a2.66 2.66 0 0 1-2.32-.87 3.93 3.93 0 0 1-.61-2.27v-9.6H84v-2h2zm7.18 4.05h2.41V132a8.42 8.42 0 0 1 1.57-1.56 4.73 4.73 0 0 1 2.74-.82 4.32 4.32 0 0 1 2.79.85 4.57 4.57 0 0 1 1.08 1.43 5.05 5.05 0 0 1 4.37-2.28q2.92 0 4 2.11a6.9 6.9 0 0 1 .57 3.06v9.65h-2.53v-10.09a2.32 2.32 0 0 0-.73-2 2.86 2.86 0 0 0-1.76-.54 3.5 3.5 0 0 0-2.47 1 4.22 4.22 0 0 0-1 3.21v8.43h-2.48V135a4.81 4.81 0 0 0-.35-2.15 2.14 2.14 0 0 0-2.07-1 3.58 3.58 0 0 0-2.51 1.07c-.76.71-1.13 2-1.13 3.87v7.69h-2.5zm32.05.4a5.53 5.53 0 0 1 2.2 1.88 6.68 6.68 0 0 1 1 2.55 17.35 17.35 0 0 1 .21 3.2h-10.58a6.25 6.25 0 0 0 1 3.55 3.44 3.44 0 0 0 3 1.34 3.85 3.85 0 0 0 3-1.27 4.21 4.21 0 0 0 .89-1.7h2.4a5.24 5.24 0 0 1-.63 1.78 6.73 6.73 0 0 1-1.19 1.61 5.66 5.66 0 0 1-2.73 1.46 8.44 8.44 0 0 1-2 .22 6.07 6.07 0 0 1-4.56-2 7.71 7.71 0 0 1-1.87-5.52 8.33 8.33 0 0 1 1.89-5.67 6.16 6.16 0 0 1 4.92-2.18 6.57 6.57 0 0 1 3.05.75zm.88 5.69a6.35 6.35 0 0 0-.69-2.53 3.5 3.5 0 0 0-3.31-1.76 3.72 3.72 0 0 0-2.8 1.21 4.6 4.6 0 0 0-1.19 3.08zm5.59-6.09h2.3V132a6.59 6.59 0 0 1 2.18-1.83 5.82 5.82 0 0 1 2.56-.55c2.06 0 3.45.71 4.17 2.15a7.58 7.58 0 0 1 .6 3.37v9.3H141v-9.14a5 5 0 0 0-.39-2.14 2.39 2.39 0 0 0-2.36-1.35 4.67 4.67 0 0 0-1.42.18 3.58 3.58 0 0 0-1.76 1.19 3.52 3.52 0 0 0-.79 1.48 10.15 10.15 0 0 0-.18 2.19v7.59h-2.4zm15.91-4.05h2.46v4h2.32v2h-2.32v9.47a1 1 0 0 0 .51 1 2.19 2.19 0 0 0 .95.15h.38.48v1.93a6.23 6.23 0 0 1-.88.18l-1 .05a2.63 2.63 0 0 1-2.31-.87 3.85 3.85 0 0 1-.61-2.27v-9.6h-2v-2h2zM43.87 154.74a7 7 0 0 1 2.29 4.52h-2.63a5 5 0 0 0-5.42-4.17 5.84 5.84 0 0 0-4.66 2.07c-1.18 1.38-1.78 3.49-1.78 6.33a9.32 9.32 0 0 0 1.61 5.67 5.56 5.56 0 0 0 4.78 2.18 5 5 0 0 0 4.45-2.29 8.68 8.68 0 0 0 1.21-3.17h2.63a9 9 0 0 1-2.3 5.27 8.17 8.17 0 0 1-6.32 2.56 8.27 8.27 0 0 1-5.75-2.1q-3.07-2.78-3.07-8.58a11.08 11.08 0 0 1 2.3-7.22 8.37 8.37 0 0 1 6.87-3.06 8 8 0 0 1 5.79 1.99zm14.59 4.34a5.49 5.49 0 0 1 2.19 1.92 6.47 6.47 0 0 1 1 2.56 16.31 16.31 0 0 1 .22 3.2H51.29a6.28 6.28 0 0 0 1 3.55 3.44 3.44 0 0 0 3 1.34 3.86 3.86 0 0 0 3-1.27 4.29 4.29 0 0 0 .9-1.7h2.4a5.31 5.31 0 0 1-.63 1.78 6.43 6.43 0 0 1-1.2 1.6 5.6 5.6 0 0 1-2.72 1.47 8.59 8.59 0 0 1-2 .21 6 6 0 0 1-4.56-2 7.66 7.66 0 0 1-1.87-5.51 8.42 8.42 0 0 1 1.88-5.68 6.22 6.22 0 0 1 4.93-2.18 6.58 6.58 0 0 1 3.04.71zm.87 5.69a6.2 6.2 0 0 0-.68-2.53 3.51 3.51 0 0 0-3.32-1.76 3.64 3.64 0 0 0-2.79 1.21 4.6 4.6 0 0 0-1.19 3.08zm5.6-6.09h2.31v2.06a6.5 6.5 0 0 1 2.18-1.83 5.83 5.83 0 0 1 2.56-.56q3.09 0 4.17 2.16a7.6 7.6 0 0 1 .59 3.37v9.3h-2.47V164a4.83 4.83 0 0 0-.4-2.14 2.37 2.37 0 0 0-2.35-1.35 5.05 5.05 0 0 0-1.42.17 3.63 3.63 0 0 0-1.76 1.2 3.46 3.46 0 0 0-.79 1.48 9.4 9.4 0 0 0-.19 2.18v7.6h-2.43zm15.9-4.05h2.47v4.05h2.31v2H83.3v9.46a1 1 0 0 0 .51 1 2.19 2.19 0 0 0 1 .15h.38.47v1.94a6.09 6.09 0 0 1-.87.18h-1a2.66 2.66 0 0 1-2.32-.87 4 4 0 0 1-.61-2.27v-9.6h-2v-2h2zM97 159.08a5.49 5.49 0 0 1 2.2 1.92 6.63 6.63 0 0 1 1 2.56 17.35 17.35 0 0 1 .21 3.2H89.84a6.27 6.27 0 0 0 1 3.55 3.46 3.46 0 0 0 3 1.34 3.86 3.86 0 0 0 3-1.27 4.27 4.27 0 0 0 .89-1.7h2.4a4.91 4.91 0 0 1-.63 1.78 6.41 6.41 0 0 1-1.19 1.6 5.68 5.68 0 0 1-2.73 1.47 8.47 8.47 0 0 1-2 .21 6 6 0 0 1-4.56-2 7.71 7.71 0 0 1-1.87-5.51 8.38 8.38 0 0 1 1.89-5.68 6.19 6.19 0 0 1 4.96-2.2 6.62 6.62 0 0 1 3 .73zm.87 5.69a6.35 6.35 0 0 0-.69-2.53 3.49 3.49 0 0 0-3.31-1.76 3.64 3.64 0 0 0-2.79 1.21 4.6 4.6 0 0 0-1.2 3.08zm5.67-6.09h2.31v2.5a5.66 5.66 0 0 1 1.4-1.78 3.61 3.61 0 0 1 2.56-1.05h.23.55V161l-.4-.05h-.4a3.49 3.49 0 0 0-2.83 1.18 4.13 4.13 0 0 0-1 2.73v8.34h-2.43z" fill="#fff"/></svg>