<svg xmlns="http://www.w3.org/2000/svg" width="718.41" height="192.31" viewBox="0 0 718.41 192.31"><path d="M401.43,48.18a3.44,3.44,0,0,0-1.07.19l-18.56-9a7.46,7.46,0,0,0,4.09-4.83,7.57,7.57,0,0,0,.09-3.69c1.25-.28,2.07-.8,2.24-1.54.38-1.73-3-4-7.55-5s-8.56-.47-8.95,1.26c-.16.72.34,1.52,1.27,2.29a7.37,7.37,0,0,0-1.35,2.68,7.56,7.56,0,0,0,3.51,8.58l-20.61,6.77.32,1.52a4.13,4.13,0,0,1,.43,1.51,4.7,4.7,0,0,1,0,.65l.24,1.51,15.32-1.6-8.49,29.21,8.54,1.46,6.77-14.88,5.89,15.63,8.63-.49-5.63-29.26L398.28,54a3.71,3.71,0,0,0,3.15,1.8,3.79,3.79,0,0,0,0-7.57" transform="translate(-2.4 -4.09)" fill="#9dc23b"/><text transform="translate(129.92 182.21)" font-size="33.1" fill="#122147" font-family="HelveticaNeue-Light, Helvetica Neue" font-weight="300"><tspan letter-spacing="0.01em">F</tspan><tspan x="18.04" y="0" letter-spacing="0.01em">e</tspan><tspan x="35.45" y="0" letter-spacing="0.01em">tal</tspan><tspan x="69.34" y="0" xml:space="preserve" letter-spacing="0.01em"> T</tspan><tspan x="97.41" y="0" letter-spacing="0.01em">r</tspan><tspan x="108.1" y="0" letter-spacing="0.01em">ea</tspan><tspan x="142.92" y="0" letter-spacing="0.01em">t</tspan><tspan x="152.98" y="0" letter-spacing="0.01em">m</tspan><tspan x="180.78" y="0" letter-spacing="0.01em">ent</tspan><tspan x="226.32" y="0" xml:space="preserve" letter-spacing="0.01em"> C</tspan><tspan x="259.29" y="0" letter-spacing="0.01em">ente</tspan><tspan x="322.27" y="0">r</tspan></text><path d="M175.43,52.56l.36-.83-21-8.22a6.64,6.64,0,0,0,3-4.46.66.66,0,0,0,.53-.14.87.87,0,0,1,.14-.12l.24-.27a.7.7,0,0,0,.1-.53l.19-.2a.71.71,0,0,0,0-.62L158.9,37a1.58,1.58,0,0,0-.36-.37l0,0v-.14a.66.66,0,0,0-.21-.26.46.46,0,0,0,0-.2l-.11-.29,0,0a2,2,0,0,0-.4-1.42c-.38-.24-.55-.33-.74-.46a1.86,1.86,0,0,0-.15-.5.45.45,0,0,0-.09-.1s0-.09,0-.24a1.16,1.16,0,0,0-.13-.36,3.92,3.92,0,0,0-.39-.25,2.41,2.41,0,0,0-.35-.56,2.46,2.46,0,0,0-.5-.2,1.1,1.1,0,0,0-.33-.08h0a2.41,2.41,0,0,0-.35-.22.93.93,0,0,0-.38-.17l-.23.07c-.18-.14-.18-.14-.36-.3l-.18-.08-.05-.11a1.25,1.25,0,0,0-.46-.33l-.41.13-.71.2a1.91,1.91,0,0,0-.14-.21,2,2,0,0,1-.43-.39,1,1,0,0,0-.5-.24l-.51.26a3.64,3.64,0,0,0-.58.62.73.73,0,0,0-.23,0l-.34.14a1.28,1.28,0,0,0-.22-.17,2.65,2.65,0,0,0-1.3.62h0a2.36,2.36,0,0,0-1.39.26c-.07.33-.12.58-.15.8l0,.07,0,.11a.14.14,0,0,0,0,.06.68.68,0,0,0,0,.35V33l-.14.1a.2.2,0,0,0,0,.05h0l-.4.27,0,0-.26,0a1,1,0,0,0-.65,0c-.17.28-.17.28-.12.25a1.34,1.34,0,0,0-.2,1.48l.24.29a1,1,0,0,0-.29.32c0,.08,0,.14,0,.19a3.18,3.18,0,0,0-.39.3,1.76,1.76,0,0,0-.27,1.83l.34.13a2.85,2.85,0,0,0-.55.81c.42.65.67,1.05,1.16,1.23a5.08,5.08,0,0,0,.64-.1,6.67,6.67,0,0,0,3.76,3.89l-2.31,1.42a2,2,0,0,0-3.67.58l-.26.93a7,7,0,0,0-1.45.08A5.05,5.05,0,0,0,141,45.2a4.63,4.63,0,0,0-3.15-3,1.6,1.6,0,0,0,0-.89,1.58,1.58,0,0,0-2-1,1.63,1.63,0,0,0-1,2c0,.06,0,.11.07.16a4.35,4.35,0,0,0-2.06,2.09,1.58,1.58,0,0,0-1.42-.21,1.62,1.62,0,0,0-1,2,1.59,1.59,0,0,0,2,1l.06,0a3.78,3.78,0,0,0,.14.65,4.53,4.53,0,0,0,4.29,3.17c0,.11,0,.22-.07.33l-1.56,1,.1.2-.28.14a3,3,0,0,0-2.12-.2,3.09,3.09,0,0,0-2.12,3.8,3,3,0,0,0,3.75,2.16,3.09,3.09,0,0,0,2-2l1.08-.19a9,9,0,0,0,1,1.42,7.85,7.85,0,0,0,2.33,1.82,2.91,2.91,0,0,0,.45,3.14,2.78,2.78,0,0,0,3.81.34l-2.84,18,7.63.41,4.06-15.14,7.12,14.47,7.5-1.31-7.51-25.11,13.31,1.41-.59-.81a3.76,3.76,0,0,1-.06-.51c0-1.26.64-1.36,1.61-2" transform="translate(-2.4 -4.09)" fill="#f58025"/><path d="M224.94,45.31,204.15,35.5a7,7,0,0,0,3.39-4.86.08.08,0,0,1,0,0,1.46,1.46,0,0,0,.85-.27c.26.42.57,1.33,1.4.63-.07,1.12.68.86.91.78a1,1,0,0,0,.21.5c-.79-.1-1,.6-1.87,1,.37.68,1.59,0,2.18.25.32.13-.14,1,.29,1.51.82.14.9-1.06,1.32-1,.19.75.12,1.18.49,1.6,1.23,1.4,1.83.44,2.44.71-.75-1.78-.87-1.25-.89-1.62.19-.2.86.28,1.17.24a6.57,6.57,0,0,0-1.8-1.68,8,8,0,0,1,1.19,0c.78-.08.37-.42.92-.93a3,3,0,0,1-1.66-.49c-.16-.82.13-1.42-.51-2-.85.73-.41,1-1,1.6,0,0,.21-1.73-1.06-.77,0-.49-.33-1.45-1.48-.86-.09-.6-.37-1.41-1.31-.92-.12-.56-.35-.83-.6-.92a8.15,8.15,0,0,0-16.21,1.73,8.1,8.1,0,0,0,.13.88,1.25,1.25,0,0,0-.39.94c-1-.34-1.14.49-1.16,1.11-1.2-.4-1.37.59-1.34,1.07-1.39-.73-.91.93-.9.92-.69-.43-1.19-.62-1.25-1.41-.54.65-.16,1.2-.22,2-.43.25-.55-.14-1.56.74.62.43.28.82,1,.78a7.77,7.77,0,0,1,1.18-.15,6.87,6.87,0,0,0-1.52,1.93c.32,0,.91-.59,1.13-.41,0,.36-.17-.15-.65,1.74.57-.36,1.3.49,2.31-1.08.3-.47.17-.88.25-1.66a1.69,1.69,0,0,1,1.45.82c1.27-.49-.74-1.77,2.19-2.12a1.63,1.63,0,0,0-2-.7c.14-.16.12-.3.14-.51.23,0,1,.18.78-.92.92.57,1.1-.37,1.28-.82a1.45,1.45,0,0,0,1.29,0,6.8,6.8,0,0,0,3.21,3L178.57,51.3a3.37,3.37,0,0,0-1.72-.48,3.62,3.62,0,0,0,0,7.23,3.53,3.53,0,0,0,3.39-2.62l14.45-7.35-7.22,22.57,5.15.45-.69,10.31,8.26.71,1.46-10.67h3.55l1.46,10.85,8,0L214,71.24l5.07-.36-8.51-22.62,13.33,2.1L224,50c-.12-.36-.2.29-.23-.1a5.31,5.31,0,0,1,1.06-3.77Z" transform="translate(-2.4 -4.09)" fill="#ed1849"/><path d="M352.65,44.27a4.12,4.12,0,0,0-2.08.59L327.14,34a8.55,8.55,0,0,0,4.61-5.62c0-.14.05-.27.09-.4.22-.25.3-.37.37-.46a1.35,1.35,0,0,0,.16-.43,1.77,1.77,0,0,0,0-.26.06.06,0,0,1,0,0c0-.07,0-.13.08-.22s0-.08,0-.11a.79.79,0,0,0,.15-.27c0-.24,0-.25-.06-.37l.07-.11a1.31,1.31,0,0,0,.07-.4s0,0,0,0a1.87,1.87,0,0,0,.09-.39,1.46,1.46,0,0,0,.19-.16A3.1,3.1,0,0,0,333,24a1.23,1.23,0,0,0-.22-.39l-.39-.15h0a4,4,0,0,1,0-.43,1.24,1.24,0,0,0-.21-.49l-.13,0a1,1,0,0,0-.19-.51l-.23-.07a1.78,1.78,0,0,0-.05-.25,2,2,0,0,0-.33-.53.71.71,0,0,0-.29-.07V21a1.23,1.23,0,0,0-.09-.26l-.11-.21s0,0-.05,0l-.15-.4h0c0-.05,0-.1-.05-.18a1,1,0,0,0-.27-.19.68.68,0,0,0-.6-.47h-.12a.73.73,0,0,0-.22-.39l-.07-.05a.65.65,0,0,0-.54-.14l-.16,0-.15-.13c0-.05,0-.12-.05-.2l-.12-.19a1.07,1.07,0,0,0-.28-.28,2.11,2.11,0,0,0-.41-.06h-.22l-.14-.11a1.55,1.55,0,0,0-.52-.15h-.1a3,3,0,0,0-.48-.45,1.07,1.07,0,0,0-.41,0l-.3.07-.05.06a4.67,4.67,0,0,0-.29-.48,1,1,0,0,0-.66.07h0a1,1,0,0,0-.62.22.32.32,0,0,0-.17-.06l-.08,0a.67.67,0,0,0-.71-.07l-.29.22a.75.75,0,0,0-.09.09,2,2,0,0,0-.23-.18l-.15-.11a.63.63,0,0,0-.18-.12.68.68,0,0,0-.87.4,1,1,0,0,1-.13,0l-.07,0a.58.58,0,0,0-.3.23l-.05.08a.54.54,0,0,1-.09.12.69.69,0,0,0-.28.08l0,0-.13-.06a.67.67,0,0,0-.76.18,1.07,1.07,0,0,0-.25.32h0a.65.65,0,0,0-.71.23l-.12.17a2,2,0,0,0-.23.68l-.12.09s0,0,0,0a.54.54,0,0,0-.21.18l-.09.1s0,0,0,0a.74.74,0,0,0-.3.13l-.08.06a1.09,1.09,0,0,0-.13.17,1.16,1.16,0,0,0-.31.07l-.19.08a.59.59,0,0,0-.36.35l0,.1a.69.69,0,0,0,0,.56.11.11,0,0,0,0,.05l-.07.05-.15.05a.67.67,0,0,0-.35.61.68.68,0,0,0-.2.88h0c-.19,0-.31.2-.47.31l-.14.13a.7.7,0,0,0-.11.81l0,0a.84.84,0,0,0,.06.14l-.2.64a1.34,1.34,0,0,0,.06.12l.05.07,0,.19a.69.69,0,0,0-.18.92l.13.16a1.35,1.35,0,0,0,.14.59,2.39,2.39,0,0,1-.13-.21v-.12a.72.72,0,0,0,.07.54l.24.3a.24.24,0,0,1,.06.08h0a.68.68,0,0,0,.48.26,8.63,8.63,0,0,0,4.31,6l-23,11.11A5.48,5.48,0,0,1,298,49.16c0,.45-.87,1-1,1.37l17.91-3.29-6,22.28,3.53.26-.05,11.41,7.92.36L322.69,70l3.07.07,1.85,11.69,8.43-.29,0-10.93,3.33.25-5.69-21.63L349.34,51a4.12,4.12,0,0,0,7.44-2.5,4.17,4.17,0,0,0-4.13-4.2" transform="translate(-2.4 -4.09)" fill="#0093d0"/><text transform="translate(127.84 139.96)" font-size="49.65" fill="#122147" font-family="HelveticaNeue-Light, Helvetica Neue" font-weight="300" letter-spacing="0.01em">Ben<tspan x="86.44" y="0" letter-spacing="0.01em">io</tspan><tspan x="123.72" y="0" letter-spacing="0em">f</tspan></text><text transform="translate(266.41 139.96)" font-size="49.65" fill="#122147" font-family="HelveticaNeue-Light, Helvetica Neue" font-weight="300"><tspan letter-spacing="0.01em">f</tspan><tspan x="13.26" y="0"> </tspan></text><text transform="translate(292.87 139.96)" font-size="49.65" fill="#122147" font-family="HelveticaNeue-Light, Helvetica Neue" font-weight="300" letter-spacing="0.01em">Ch<tspan x="62.41" y="0" letter-spacing="0.01em">i</tspan><tspan x="71.94" y="0" letter-spacing="0.01em">ldre</tspan><tspan x="152.62" y="0" letter-spacing="0em">n</tspan></text><text transform="translate(470.36 139.96)" font-size="49.65" fill="#122147" font-family="HelveticaNeue-Light, Helvetica Neue" font-weight="300"><tspan letter-spacing="-0.06em">’</tspan><tspan x="10.97" y="0">s</tspan></text><text transform="translate(505.61 139.96)" font-size="49.65" fill="#122147" font-family="HelveticaNeue-Light, Helvetica Neue" font-weight="300"><tspan letter-spacing="-0.02em"> </tspan><tspan x="12.76" y="0">H</tspan></text><text transform="translate(552.43 139.96)" font-size="49.65" fill="#122147" font-family="HelveticaNeue-Light, Helvetica Neue" font-weight="300"><tspan letter-spacing="0em">o</tspan><tspan x="27.8" y="0" letter-spacing="0.01em">sp</tspan><tspan x="80.68" y="0" letter-spacing="0em">i</tspan><tspan x="90.06" y="0">t</tspan></text><text transform="translate(657.79 139.96)" font-size="49.65" fill="#122147" font-family="HelveticaNeue-Light, Helvetica Neue" font-weight="300"><tspan letter-spacing="0.03em">a</tspan><tspan x="27.11" y="0">l</tspan></text><text transform="translate(694.53 139.96)" font-size="49.65" fill="#122147" font-family="HelveticaNeue-Light, Helvetica Neue" font-weight="300">s</text><path d="M114.7,114.18v-6.76H89v24.92a8.68,8.68,0,0,0-3.23-6.78,16.25,16.25,0,0,0-6.28-2.64l-6.38-1.5a22,22,0,0,1-4.84-1.51,3.28,3.28,0,0,1-1.47-1.48h0a3.43,3.43,0,0,1-.3-1.42,3.72,3.72,0,0,1,1.18-2.81h0l0,0h0a5.26,5.26,0,0,1,.58-.45,8.63,8.63,0,0,1,4.81-1.18,10.13,10.13,0,0,1,4.52.91,5.2,5.2,0,0,1,2.93,4.67h7.31a10.82,10.82,0,0,0-4.31-8.85,16.22,16.22,0,0,0-9.93-3c-4.64,0-8.17,1.08-10.56,3.24A10.48,10.48,0,0,0,60,114a10.77,10.77,0,0,0-.3,1.15c-.89,4.2-3.59,7-8.11,7-7.23,0-9.94-6.15-9.94-12.25,0-6.41,2.71-12.56,9.94-12.56,4,0,7.49,2.77,8,6.41h7.79c-1-8.46-7.74-13.18-15.79-13.18-10.8,0-17.36,7.7-17.94,17.83v-17h-8v22.76c0,5.43-1.84,7.94-7.58,7.94-6.52,0-7.54-4-7.54-7.94V91.53h-8v22.76C2.4,124.23,8.14,129,18,129s15.63-4.82,15.63-14.7v-2.86C34.2,121.3,40.76,129,51.56,129a16,16,0,0,0,11-4c.17.14.35.27.54.41,1.44,1,4.1,1.92,8,2.78l3.94.86a17.41,17.41,0,0,1,5,1.71,3.11,3.11,0,0,1,1.59,2.78q0,3.09-3.25,4.22a13.79,13.79,0,0,1-4.46.59c-3.06,0-5.21-.74-6.47-2.24a7.38,7.38,0,0,1-1.39-3.72H58.85A10.76,10.76,0,0,0,63,141.32q4.12,3.24,11.3,3.24t10.89-3.29A10.41,10.41,0,0,0,89,133.78V144h8V128.89h15.32v-6.25H97v-8.46Z" transform="translate(-2.4 -4.09)" fill="#122147"/><path d="M294.74,42.13a5.42,5.42,0,0,0-2,.4L265.61,23.94a10.76,10.76,0,0,0-3.8-19.73,10.54,10.54,0,0,0-12,8.91,10.7,10.7,0,0,0,6.36,11.52L230,42.72a5.23,5.23,0,0,0-2.1-.44,5.35,5.35,0,1,0,5.1,6.59l18-5.54L237.85,83.19,250,84l11.68-25.35L273.18,84,286,83.19,271.88,43.33l17.85,5.92a5.32,5.32,0,1,0,5-7.12" transform="translate(-2.4 -4.09)" fill="#716fb3"/></svg>