<svg xmlns="http://www.w3.org/2000/svg" viewBox="0 0 716.87 182.67" class="w-full h-full">
<title>UCSF Fetal Treatment Center</title>
    <path
        d="M424.05,253.68a3.43,3.43,0,0,0-1.07.18l-18.56-9a7.46,7.46,0,0,0,4.09-4.82,7.58,7.58,0,0,0,.09-3.69c1.25-.28,2.07-.8,2.24-1.55.38-1.73-3-4-7.55-5s-8.56-.48-9,1.26c-.16.71.34,1.51,1.27,2.29a7.21,7.21,0,0,0-1.35,2.68,7.54,7.54,0,0,0,3.51,8.57l-20.6,6.77.31,1.52a4.25,4.25,0,0,1,.43,1.51,4.73,4.73,0,0,1,0,.65l.24,1.51,15.32-1.6L385,284.18l8.54,1.47,6.77-14.88,5.89,15.63,8.63-.49-5.63-29.27,11.71,2.8a3.69,3.69,0,0,0,3.15,1.8,3.78,3.78,0,0,0,0-7.56"
        transform="translate(-25.02 -209.58)" fill="#9dc23b" />
    <path d="M172.32,368.16v1.92H159.57v8.54h11.32v1.92H159.57v11.25h-2.25V368.16Z"
        transform="translate(-25.02 -209.58)" fill="#122147" />
    <path
        d="M176.5,386.15a6.55,6.55,0,0,0,1,2.17,5.85,5.85,0,0,0,1.76,1.59,4.87,4.87,0,0,0,2.55.62,5,5,0,0,0,3.57-1.19,6.24,6.24,0,0,0,1.79-3.17h2.08a8.32,8.32,0,0,1-2.43,4.5,7.24,7.24,0,0,1-5,1.58,7.92,7.92,0,0,1-3.5-.71,6.39,6.39,0,0,1-2.4-2,8.73,8.73,0,0,1-1.37-2.88,13,13,0,0,1-.45-3.46,12.35,12.35,0,0,1,.45-3.31,9.07,9.07,0,0,1,1.37-2.89,7,7,0,0,1,2.4-2.06,7.53,7.53,0,0,1,3.5-.77,7,7,0,0,1,3.5.82,7.17,7.17,0,0,1,2.37,2.17,9.08,9.08,0,0,1,1.31,3.08,13.91,13.91,0,0,1,.33,3.53H176.19A9.23,9.23,0,0,0,176.5,386.15Zm10.33-6.37a6,6,0,0,0-1.08-1.94,5.44,5.44,0,0,0-1.68-1.36,5.31,5.31,0,0,0-4.54,0,5.6,5.6,0,0,0-1.69,1.36,6.88,6.88,0,0,0-1.11,2,10,10,0,0,0-.54,2.27h11.05A7.59,7.59,0,0,0,186.83,379.78Z"
        transform="translate(-25.02 -209.58)" fill="#122147" />
    <path
        d="M199.16,374.71v1.76h-3.48V388a3.83,3.83,0,0,0,.28,1.6c.19.39.66.6,1.41.65a17.9,17.9,0,0,0,1.79-.1v1.75q-.47,0-.93,0c-.31,0-.62,0-.92,0a3.08,3.08,0,0,1-3.71-3.81V376.47h-3v-1.76h3v-5.13h2.08v5.13Z"
        transform="translate(-25.02 -209.58)" fill="#122147" />
    <path
        d="M202.87,377.36a4.88,4.88,0,0,1,1.44-1.79,6,6,0,0,1,2.13-1,10.43,10.43,0,0,1,2.71-.33,12.24,12.24,0,0,1,2.25.21,5.64,5.64,0,0,1,2,.81,4.5,4.5,0,0,1,1.46,1.67,6.11,6.11,0,0,1,.56,2.8v9.07a1.1,1.1,0,0,0,1.23,1.26,1.76,1.76,0,0,0,.66-.13v1.75l-.65.1a6.75,6.75,0,0,1-.71,0,3.2,3.2,0,0,1-1.27-.21A1.77,1.77,0,0,1,214,391a2.24,2.24,0,0,1-.34-.94,7.46,7.46,0,0,1-.09-1.21h-.06a13.35,13.35,0,0,1-1.15,1.48,5.26,5.26,0,0,1-1.29,1.07,5.62,5.62,0,0,1-1.62.66,8.59,8.59,0,0,1-2.17.23A8.46,8.46,0,0,1,205,392a4.91,4.91,0,0,1-1.82-.89,4.19,4.19,0,0,1-1.22-1.56,5.1,5.1,0,0,1-.45-2.23,4.44,4.44,0,0,1,.79-2.8,5,5,0,0,1,2.1-1.53,11.69,11.69,0,0,1,2.95-.75l3.33-.41c.44-.05.82-.1,1.15-.17a2,2,0,0,0,.83-.35,1.65,1.65,0,0,0,.52-.68,2.91,2.91,0,0,0,.18-1.12,3.82,3.82,0,0,0-.35-1.74,2.69,2.69,0,0,0-1-1.07,3.8,3.8,0,0,0-1.42-.55,9.56,9.56,0,0,0-1.74-.15,5.3,5.3,0,0,0-3.24.94,3.72,3.72,0,0,0-1.33,3h-2.08A6.71,6.71,0,0,1,202.87,377.36Zm10.42,5.1a1.18,1.18,0,0,1-.76.53,7.51,7.51,0,0,1-1,.23c-.89.15-1.8.29-2.73.41a15.06,15.06,0,0,0-2.57.55,5,5,0,0,0-1.9,1,2.48,2.48,0,0,0-.75,1.94,3,3,0,0,0,.32,1.4,3.34,3.34,0,0,0,.84,1.06,3.51,3.51,0,0,0,1.23.68,4.27,4.27,0,0,0,1.42.23,7.21,7.21,0,0,0,2.28-.36,5.64,5.64,0,0,0,1.91-1.06,5.05,5.05,0,0,0,1.77-3.94v-2.71Z"
        transform="translate(-25.02 -209.58)" fill="#122147" />
    <path d="M222,368.16v23.63h-2.09V368.16Z" transform="translate(-25.02 -209.58)" fill="#122147" />
    <path d="M252.28,368.16v1.92H244v21.71h-2.25V370.08h-8.21v-1.92Z" transform="translate(-25.02 -209.58)"
        fill="#122147" />
    <path
        d="M256.25,374.71v4h.07a6.28,6.28,0,0,1,6.45-4.24v2.09a6.15,6.15,0,0,0-2.58.38,5.7,5.7,0,0,0-3.31,3.24,6.58,6.58,0,0,0-.46,2.5v9.1h-2.09V374.71Z"
        transform="translate(-25.02 -209.58)" fill="#122147" />
    <path
        d="M266.56,386.15a6.55,6.55,0,0,0,1,2.17,5.85,5.85,0,0,0,1.76,1.59,4.87,4.87,0,0,0,2.55.62,5,5,0,0,0,3.57-1.19,6.24,6.24,0,0,0,1.79-3.17h2.08a8.32,8.32,0,0,1-2.43,4.5,7.24,7.24,0,0,1-5,1.58,7.89,7.89,0,0,1-3.5-.71,6.39,6.39,0,0,1-2.4-2,8.73,8.73,0,0,1-1.37-2.88,13,13,0,0,1-.45-3.46,12.35,12.35,0,0,1,.45-3.31,9.07,9.07,0,0,1,1.37-2.89,7,7,0,0,1,2.4-2.06,7.5,7.5,0,0,1,3.5-.77,7,7,0,0,1,3.5.82,7.17,7.17,0,0,1,2.37,2.17,9.08,9.08,0,0,1,1.31,3.08,13.91,13.91,0,0,1,.33,3.53H266.25A9.23,9.23,0,0,0,266.56,386.15Zm10.33-6.37a6,6,0,0,0-1.08-1.94,5.44,5.44,0,0,0-1.68-1.36,5.31,5.31,0,0,0-4.54,0,5.6,5.6,0,0,0-1.69,1.36,6.88,6.88,0,0,0-1.11,2,10,10,0,0,0-.54,2.27H277.3A7.59,7.59,0,0,0,276.89,379.78Z"
        transform="translate(-25.02 -209.58)" fill="#122147" />
    <path
        d="M282.86,377.36a5.09,5.09,0,0,1,1.44-1.79,6.16,6.16,0,0,1,2.14-1,10.37,10.37,0,0,1,2.71-.33,12.24,12.24,0,0,1,2.25.21,5.64,5.64,0,0,1,2,.81,4.5,4.5,0,0,1,1.46,1.67,6.11,6.11,0,0,1,.56,2.8v9.07a1.1,1.1,0,0,0,1.23,1.26,1.76,1.76,0,0,0,.66-.13v1.75l-.65.1a6.88,6.88,0,0,1-.71,0,3.2,3.2,0,0,1-1.27-.21A1.77,1.77,0,0,1,294,391a2.25,2.25,0,0,1-.35-.94,8.88,8.88,0,0,1-.08-1.21h-.06a13.35,13.35,0,0,1-1.15,1.48,5.26,5.26,0,0,1-1.29,1.07,5.62,5.62,0,0,1-1.62.66,8.65,8.65,0,0,1-2.17.23A8.41,8.41,0,0,1,285,392a4.84,4.84,0,0,1-1.82-.89,4.31,4.31,0,0,1-1.23-1.56,5.25,5.25,0,0,1-.44-2.23,4.44,4.44,0,0,1,.79-2.8,5,5,0,0,1,2.1-1.53,11.58,11.58,0,0,1,3-.75l3.32-.41c.45-.05.83-.1,1.16-.17a2,2,0,0,0,.83-.35,1.55,1.55,0,0,0,.51-.68,2.9,2.9,0,0,0,.19-1.12,3.82,3.82,0,0,0-.35-1.74,2.69,2.69,0,0,0-1-1.07,3.78,3.78,0,0,0-1.43-.55,9.52,9.52,0,0,0-1.73-.15,5.33,5.33,0,0,0-3.25.94,3.68,3.68,0,0,0-1.32,3h-2.09A7.09,7.09,0,0,1,282.86,377.36Zm10.43,5.1a1.21,1.21,0,0,1-.76.53,7.51,7.51,0,0,1-1,.23c-.89.15-1.8.29-2.74.41a15.15,15.15,0,0,0-2.56.55,5,5,0,0,0-1.9,1,2.48,2.48,0,0,0-.75,1.94,3,3,0,0,0,.32,1.4,3.34,3.34,0,0,0,.84,1.06,3.56,3.56,0,0,0,1.22.68,4.37,4.37,0,0,0,1.43.23,7.25,7.25,0,0,0,2.28-.36,5.59,5.59,0,0,0,1.9-1.06,5,5,0,0,0,1.3-1.69,5.09,5.09,0,0,0,.48-2.25v-2.71Z"
        transform="translate(-25.02 -209.58)" fill="#122147" />
    <path
        d="M306.63,374.71v1.76h-3.48V388a3.83,3.83,0,0,0,.28,1.6c.19.39.66.6,1.41.65a17.9,17.9,0,0,0,1.79-.1v1.75q-.47,0-.93,0c-.31,0-.62,0-.93,0a3.08,3.08,0,0,1-3.7-3.81V376.47h-3v-1.76h3v-5.13h2.08v5.13Z"
        transform="translate(-25.02 -209.58)" fill="#122147" />
    <path
        d="M311.82,374.71v2.88h.1a6.66,6.66,0,0,1,2.17-2.48,6.05,6.05,0,0,1,3.43-.89,5.85,5.85,0,0,1,3.06.82,4.11,4.11,0,0,1,1.84,2.52,5.19,5.19,0,0,1,2.25-2.52,6.43,6.43,0,0,1,3.17-.82c3.78,0,5.66,2,5.66,6v11.58h-2.08V380.31a5.07,5.07,0,0,0-.89-3.23,3.85,3.85,0,0,0-3.15-1.11,4.51,4.51,0,0,0-2.25.51,3.92,3.92,0,0,0-1.42,1.38,5.81,5.81,0,0,0-.75,2,12.3,12.3,0,0,0-.21,2.3v9.66h-2.09V380.21a7.23,7.23,0,0,0-.18-1.64,3.74,3.74,0,0,0-.6-1.36,2.82,2.82,0,0,0-1.1-.91,4,4,0,0,0-1.69-.33,5.13,5.13,0,0,0-2.3.48,4.27,4.27,0,0,0-1.59,1.32,6,6,0,0,0-.91,2,9.85,9.85,0,0,0-.3,2.5v9.53H309.9V374.71Z"
        transform="translate(-25.02 -209.58)" fill="#122147" />
    <path
        d="M339.25,386.15a6.35,6.35,0,0,0,1,2.17,5.69,5.69,0,0,0,1.75,1.59,4.92,4.92,0,0,0,2.55.62,5,5,0,0,0,3.57-1.19,6.24,6.24,0,0,0,1.79-3.17H352a8.4,8.4,0,0,1-2.44,4.5,7.24,7.24,0,0,1-5,1.58,7.85,7.85,0,0,1-3.49-.71,6.24,6.24,0,0,1-2.4-2,8.55,8.55,0,0,1-1.38-2.88,13.39,13.39,0,0,1-.44-3.46,12.75,12.75,0,0,1,.44-3.31,8.88,8.88,0,0,1,1.38-2.89,6.79,6.79,0,0,1,2.4-2.06,7.46,7.46,0,0,1,3.49-.77,6.7,6.7,0,0,1,5.87,3,8.89,8.89,0,0,1,1.31,3.08,13.06,13.06,0,0,1,.33,3.53H338.93A9.25,9.25,0,0,0,339.25,386.15Zm10.32-6.37a6.2,6.2,0,0,0-1.07-1.94,5.6,5.6,0,0,0-1.69-1.36,4.84,4.84,0,0,0-2.25-.51,5,5,0,0,0-2.29.51,5.44,5.44,0,0,0-1.68,1.36,6.43,6.43,0,0,0-1.11,2,9.52,9.52,0,0,0-.55,2.27H350A7.6,7.6,0,0,0,349.57,379.78Z"
        transform="translate(-25.02 -209.58)" fill="#122147" />
    <path
        d="M357.2,374.71v3h.07a5,5,0,0,1,2.12-2.5,6.2,6.2,0,0,1,3.34-.94,8.35,8.35,0,0,1,3,.46,4.63,4.63,0,0,1,1.94,1.31,4.81,4.81,0,0,1,1,2.07,11.5,11.5,0,0,1,.3,2.74v11H366.9V381.13a10.05,10.05,0,0,0-.2-2,4.26,4.26,0,0,0-.69-1.64,3.37,3.37,0,0,0-1.34-1.09,4.9,4.9,0,0,0-2.11-.4,5.29,5.29,0,0,0-2.23.45,4.94,4.94,0,0,0-1.66,1.22,5.63,5.63,0,0,0-1.05,1.86,7.25,7.25,0,0,0-.42,2.33v10h-2.08V374.71Z"
        transform="translate(-25.02 -209.58)" fill="#122147" />
    <path
        d="M380,374.71v1.76H376.5V388a3.67,3.67,0,0,0,.28,1.6c.19.39.66.6,1.41.65a17.7,17.7,0,0,0,1.78-.1v1.75c-.31,0-.62,0-.92,0s-.62,0-.93,0a4.12,4.12,0,0,1-2.91-.81,4.06,4.06,0,0,1-.8-3V376.47h-3v-1.76h3v-5.13h2.09v5.13Z"
        transform="translate(-25.02 -209.58)" fill="#122147" />
    <path
        d="M409.38,372.88a6.66,6.66,0,0,0-1.65-1.81,7.7,7.7,0,0,0-2.15-1.11,8.12,8.12,0,0,0-2.47-.38,8.49,8.49,0,0,0-4,.9,7.91,7.91,0,0,0-2.76,2.36,10.16,10.16,0,0,0-1.59,3.33,14.41,14.41,0,0,0,0,7.6,10.11,10.11,0,0,0,1.59,3.34,8,8,0,0,0,2.76,2.37,8.6,8.6,0,0,0,4,.89,7.15,7.15,0,0,0,3-.6,7,7,0,0,0,2.28-1.62,8.29,8.29,0,0,0,1.56-2.4,10.15,10.15,0,0,0,.76-3h2.25a12.6,12.6,0,0,1-1,3.94,9.69,9.69,0,0,1-2.05,3,8.75,8.75,0,0,1-3,1.88,10.43,10.43,0,0,1-3.79.66,11.19,11.19,0,0,1-4.88-1,10.27,10.27,0,0,1-3.5-2.7,11.56,11.56,0,0,1-2.08-3.91,15.89,15.89,0,0,1,0-9.33,11.61,11.61,0,0,1,2.08-3.92,10.08,10.08,0,0,1,3.5-2.72,11.78,11.78,0,0,1,8.17-.51,9.66,9.66,0,0,1,2.92,1.47,8.49,8.49,0,0,1,2.18,2.4,8.23,8.23,0,0,1,1.11,3.28h-2.25A7.51,7.51,0,0,0,409.38,372.88Z"
        transform="translate(-25.02 -209.58)" fill="#122147" />
    <path
        d="M417.76,386.15a6.33,6.33,0,0,0,1,2.17,5.85,5.85,0,0,0,1.76,1.59,4.89,4.89,0,0,0,2.55.62,5,5,0,0,0,3.57-1.19,6.24,6.24,0,0,0,1.79-3.17h2.08a8.32,8.32,0,0,1-2.43,4.5,7.24,7.24,0,0,1-5,1.58,7.85,7.85,0,0,1-3.49-.71,6.24,6.24,0,0,1-2.4-2,8.55,8.55,0,0,1-1.38-2.88,13,13,0,0,1-.44-3.46,12.34,12.34,0,0,1,.44-3.31,8.88,8.88,0,0,1,1.38-2.89,6.79,6.79,0,0,1,2.4-2.06,7.46,7.46,0,0,1,3.49-.77,6.7,6.7,0,0,1,5.87,3,8.89,8.89,0,0,1,1.31,3.08,13.91,13.91,0,0,1,.33,3.53H417.44A9.25,9.25,0,0,0,417.76,386.15Zm10.32-6.37a6.2,6.2,0,0,0-1.07-1.94,5.6,5.6,0,0,0-1.69-1.36,4.84,4.84,0,0,0-2.25-.51,5,5,0,0,0-2.29.51,5.44,5.44,0,0,0-1.68,1.36,6.43,6.43,0,0,0-1.11,2,9.52,9.52,0,0,0-.55,2.27H428.5A7.6,7.6,0,0,0,428.08,379.78Z"
        transform="translate(-25.02 -209.58)" fill="#122147" />
    <path
        d="M435.71,374.71v3h.07a4.94,4.94,0,0,1,2.12-2.5,6.17,6.17,0,0,1,3.34-.94,8.35,8.35,0,0,1,3,.46,4.7,4.7,0,0,1,1.94,1.31,4.81,4.81,0,0,1,1,2.07,12.06,12.06,0,0,1,.29,2.74v11h-2.08V381.13a10.05,10.05,0,0,0-.2-2,4.12,4.12,0,0,0-.7-1.64,3.3,3.3,0,0,0-1.34-1.09,4.83,4.83,0,0,0-2.1-.4,5.25,5.25,0,0,0-2.23.45,4.94,4.94,0,0,0-1.66,1.22,5.83,5.83,0,0,0-1.06,1.86,7.53,7.53,0,0,0-.41,2.33v10h-2.08V374.71Z"
        transform="translate(-25.02 -209.58)" fill="#122147" />
    <path
        d="M458.48,374.71v1.76H455V388a3.67,3.67,0,0,0,.28,1.6c.19.39.65.6,1.4.65a17.73,17.73,0,0,0,1.79-.1v1.75c-.31,0-.62,0-.92,0s-.62,0-.93,0a4.12,4.12,0,0,1-2.91-.81,4.06,4.06,0,0,1-.8-3V376.47h-3v-1.76h3v-5.13H455v5.13Z"
        transform="translate(-25.02 -209.58)" fill="#122147" />
    <path
        d="M463.3,386.15a6.35,6.35,0,0,0,1,2.17,5.69,5.69,0,0,0,1.75,1.59,4.92,4.92,0,0,0,2.55.62,5,5,0,0,0,3.57-1.19,6.24,6.24,0,0,0,1.79-3.17h2.09a8.33,8.33,0,0,1-2.44,4.5,7.24,7.24,0,0,1-5,1.58,7.85,7.85,0,0,1-3.49-.71,6.39,6.39,0,0,1-2.4-2,8.55,8.55,0,0,1-1.38-2.88,13.39,13.39,0,0,1-.44-3.46,12.75,12.75,0,0,1,.44-3.31,8.88,8.88,0,0,1,1.38-2.89,7,7,0,0,1,2.4-2.06,7.46,7.46,0,0,1,3.49-.77,6.7,6.7,0,0,1,5.87,3,8.89,8.89,0,0,1,1.31,3.08,13.06,13.06,0,0,1,.33,3.53H463A9.25,9.25,0,0,0,463.3,386.15Zm10.32-6.37a6.2,6.2,0,0,0-1.07-1.94,5.6,5.6,0,0,0-1.69-1.36,4.84,4.84,0,0,0-2.25-.51,4.91,4.91,0,0,0-2.28.51,5.37,5.37,0,0,0-1.69,1.36,6.43,6.43,0,0,0-1.11,2,9.52,9.52,0,0,0-.55,2.27H474A7.3,7.3,0,0,0,473.62,379.78Z"
        transform="translate(-25.02 -209.58)" fill="#122147" />
    <path
        d="M481.12,374.71v4h.07a6.26,6.26,0,0,1,6.45-4.24v2.09a6.15,6.15,0,0,0-2.58.38,5.84,5.84,0,0,0-2,1.27,5.67,5.67,0,0,0-1.31,2,6.58,6.58,0,0,0-.46,2.5v9.1H479.2V374.71Z"
        transform="translate(-25.02 -209.58)" fill="#122147" />
    <path
        d="M198.05,258.06l.36-.83-21-8.22a6.68,6.68,0,0,0,3-4.46.63.63,0,0,0,.53-.15l.14-.11.24-.27a.71.71,0,0,0,.1-.53l.19-.2a.71.71,0,0,0,0-.62l-.07-.18a1.8,1.8,0,0,0-.36-.37l0,0V242a.62.62,0,0,0-.21-.27.44.44,0,0,0,0-.2l-.11-.28,0,0a2.08,2.08,0,0,0-.4-1.43l-.74-.45a1.82,1.82,0,0,0-.15-.51l-.09-.09s0-.1,0-.25a1.06,1.06,0,0,0-.13-.35,2.61,2.61,0,0,0-.39-.26,2.41,2.41,0,0,0-.35-.56,2.46,2.46,0,0,0-.5-.2,1.1,1.1,0,0,0-.33-.08h0l-.34-.22a1.09,1.09,0,0,0-.39-.16l-.23.06a3.18,3.18,0,0,1-.36-.3l-.18-.08a.58.58,0,0,1,0-.11,1.17,1.17,0,0,0-.46-.32l-.41.13-.71.19a1.86,1.86,0,0,0-.14-.2,2.66,2.66,0,0,1-.43-.39,1,1,0,0,0-.5-.25,5.08,5.08,0,0,0-.51.27,3.81,3.81,0,0,0-.58.61.73.73,0,0,0-.23,0l-.34.14a1.25,1.25,0,0,0-.22-.16,2.65,2.65,0,0,0-1.3.62l0,0a2.46,2.46,0,0,0-1.39.26c-.07.33-.12.58-.15.8l0,.08,0,.11a.17.17,0,0,0,0,.05.72.72,0,0,0,0,.36v.07l-.14.11a.11.11,0,0,0-.05,0h0l-.4.28,0,0-.26,0a1,1,0,0,0-.65,0c-.17.29-.17.29-.12.25a1.35,1.35,0,0,0-.2,1.49l.24.29a1.15,1.15,0,0,0-.29.32c0,.07,0,.13,0,.18a3.18,3.18,0,0,0-.39.3,1.78,1.78,0,0,0-.27,1.84l.34.12a2.91,2.91,0,0,0-.55.82c.42.64.67,1,1.16,1.23a3.69,3.69,0,0,0,.64-.11,6.69,6.69,0,0,0,3.76,3.9L169.17,251a2,2,0,0,0-1.15-.87,2.06,2.06,0,0,0-2.52,1.45l-.26.92a6.36,6.36,0,0,0-1.45.09,5.13,5.13,0,0,0-.22-1.89,4.64,4.64,0,0,0-3.15-3,1.63,1.63,0,0,0,0-.9,1.58,1.58,0,0,0-2-1,1.64,1.64,0,0,0-1,2l.07.16a4.38,4.38,0,0,0-2.06,2.1,1.53,1.53,0,0,0-1.42-.21,1.61,1.61,0,0,0-1,2,1.58,1.58,0,0,0,2,1l.06,0a3.88,3.88,0,0,0,.14.66,4.54,4.54,0,0,0,4.29,3.17c0,.1,0,.22-.07.32l-1.56,1,.1.19-.28.15a2.92,2.92,0,0,0-2.12-.2,3.1,3.1,0,0,0-2.12,3.8,3,3,0,0,0,3.75,2.16,3.09,3.09,0,0,0,2-2l1.08-.19a8.9,8.9,0,0,0,1,1.41,7.89,7.89,0,0,0,2.33,1.83,2.89,2.89,0,0,0,.45,3.13,2.77,2.77,0,0,0,3.81.35l-2.84,18,7.63.41,4.06-15.15,7.12,14.48,7.5-1.31L183.78,260l13.32,1.4-.6-.8a4.18,4.18,0,0,1-.06-.51c0-1.27.64-1.36,1.61-2"
        transform="translate(-25.02 -209.58)" fill="#f58025" />
    <path
        d="M247.56,250.8,226.77,241a7,7,0,0,0,3.39-4.85,0,0,0,0,1,0,0,1.54,1.54,0,0,0,.85-.28c.26.42.57,1.33,1.4.63-.07,1.13.68.86.91.79a1,1,0,0,0,.21.49c-.79-.09-1,.6-1.87,1,.37.69,1.6,0,2.18.25.32.14-.14,1,.29,1.51.82.15.9-1.05,1.32-1,.19.75.12,1.18.49,1.6,1.23,1.39,1.83.44,2.44.7-.75-1.78-.87-1.25-.89-1.61.19-.2.86.27,1.17.23a6.69,6.69,0,0,0-1.8-1.67,6.81,6.81,0,0,1,1.19,0c.78-.09.37-.43.92-.94a2.89,2.89,0,0,1-1.66-.49c-.16-.82.13-1.42-.51-2-.85.73-.41,1-1,1.59,0,0,.21-1.72-1.06-.77,0-.48-.33-1.44-1.48-.86-.09-.6-.37-1.4-1.31-.91-.12-.57-.35-.84-.6-.92a8.15,8.15,0,0,0-16.21,1.72,8.67,8.67,0,0,0,.13.89,1.21,1.21,0,0,0-.39.93c-1-.33-1.14.49-1.16,1.11-1.2-.4-1.37.59-1.34,1.08-1.39-.74-.91.92-.9.92-.69-.44-1.19-.63-1.25-1.42-.54.65-.16,1.21-.22,2-.43.24-.55-.14-1.56.73.62.43.28.83,1,.79a6.68,6.68,0,0,1,1.18-.15,6.73,6.73,0,0,0-1.52,1.93c.32,0,.91-.6,1.13-.42,0,.37-.17-.15-.65,1.75.57-.36,1.3.49,2.31-1.09.3-.46.17-.88.25-1.66a1.71,1.71,0,0,1,1.45.82c1.27-.48-.74-1.77,2.19-2.12a1.62,1.62,0,0,0-2-.69c.14-.17.12-.3.14-.52.23,0,1,.18.78-.91.92.57,1.1-.38,1.28-.83a1.42,1.42,0,0,0,1.29,0,6.9,6.9,0,0,0,3.21,3L201.19,256.8a3.37,3.37,0,0,0-1.72-.48,3.61,3.61,0,0,0,0,7.22,3.54,3.54,0,0,0,3.39-2.61l14.45-7.35-7.22,22.57,5.15.45-.69,10.31,8.26.71,1.46-10.68,3.55,0,1.46,10.84,8,0-.62-11.09,5.07-.36-8.51-22.61,13.33,2.09.06-.37c-.12-.37-.2.29-.23-.11a5.28,5.28,0,0,1,1.06-3.76Z"
        transform="translate(-25.02 -209.58)" fill="#ed1849" />
    <path
        d="M375.27,249.77a4.12,4.12,0,0,0-2.08.58l-23.43-10.82a8.53,8.53,0,0,0,4.61-5.62c0-.14.05-.26.09-.39a5.84,5.84,0,0,0,.37-.47,1.16,1.16,0,0,0,.16-.42,2,2,0,0,0,0-.26.11.11,0,0,1,0-.05c0-.06,0-.12.08-.21s0-.09,0-.12a.64.64,0,0,0,.15-.27,3.59,3.59,0,0,0-.06-.36l.07-.12a1.2,1.2,0,0,0,.07-.39s0,0,0,0a1.87,1.87,0,0,0,.09-.39.9.9,0,0,0,.19-.15,3.1,3.1,0,0,0,.06-.81,1.34,1.34,0,0,0-.22-.4l-.39-.14,0,0a4,4,0,0,1,0-.43,1.24,1.24,0,0,0-.21-.49l-.13,0a1,1,0,0,0-.19-.51l-.23-.06c0-.15,0-.26,0-.26a2.2,2.2,0,0,0-.34-.53.93.93,0,0,0-.29-.07v0a1.2,1.2,0,0,0-.09-.27l-.11-.2s0,0-.05,0-.06-.16-.15-.41h0c0-.06,0-.1-.05-.19a1.7,1.7,0,0,0-.27-.19.69.69,0,0,0-.6-.47l-.11,0a.77.77,0,0,0-.23-.39l-.07-.06a.69.69,0,0,0-.54-.14l-.16,0-.15-.12c0-.06,0-.12-.05-.2l-.12-.2a1.07,1.07,0,0,0-.28-.28l-.41-.06h-.22l-.14-.11c-.14-.08-.14-.08-.52-.15h-.1a3.55,3.55,0,0,0-.48-.45,1.07,1.07,0,0,0-.41,0,1.18,1.18,0,0,1-.3.08l-.05.06a5.57,5.57,0,0,0-.29-.49,1,1,0,0,0-.66.08l0,0a1,1,0,0,0-.62.22.67.67,0,0,0-.17-.06l-.08,0a.67.67,0,0,0-.71-.07l-.29.22-.09.1a2,2,0,0,0-.23-.18l-.14-.12a.77.77,0,0,0-.19-.11.68.68,0,0,0-.87.4,1,1,0,0,1-.13,0l-.07,0a.53.53,0,0,0-.3.23l-.05.07a1,1,0,0,1-.09.13.57.57,0,0,0-.28.08l0,0-.13-.06a.66.66,0,0,0-.76.19,1.07,1.07,0,0,0-.25.32h0a.65.65,0,0,0-.71.24l-.12.16a1.94,1.94,0,0,0-.23.69l-.12.08s0,0,0,0a.42.42,0,0,0-.21.18l-.09.09a.06.06,0,0,0,0,0,.92.92,0,0,0-.3.14l-.08.06a.59.59,0,0,0-.13.17.87.87,0,0,0-.31.07l-.19.07a.62.62,0,0,0-.36.35l0,.1a.68.68,0,0,0,0,.56.14.14,0,0,0,0,.06l-.07,0-.15.06a.65.65,0,0,0-.35.6.68.68,0,0,0-.2.88h0c-.19,0-.31.2-.47.31l-.14.13a.7.7,0,0,0-.11.81l0,0a1.39,1.39,0,0,0,.06.13l-.2.64.06.13.05.06,0,.2a.68.68,0,0,0-.18.91l.13.16a1.39,1.39,0,0,0,.14.6c0-.08-.09-.14-.13-.21v-.13a.75.75,0,0,0,.07.55l.24.3.06.07h0a.72.72,0,0,0,.48.26,8.65,8.65,0,0,0,4.31,6l-23,11.1a5.49,5.49,0,0,1,1.44,4.23c0,.45-.87,1-1,1.37l17.91-3.29-6,22.29,3.53.25,0,11.41,7.92.37,2.41-11.61,3.07.08,1.85,11.69,8.43-.29,0-10.94,3.33.26-5.69-21.63L372,256.46a4.15,4.15,0,1,0,3.31-6.69"
        transform="translate(-25.02 -209.58)" fill="#0093d0" />
    <path
        d="M171.43,314.09a21.55,21.55,0,0,1,4.3.42,10.53,10.53,0,0,1,3.62,1.44,7.77,7.77,0,0,1,2.51,2.68,8.75,8.75,0,0,1-.77,9.24,8.15,8.15,0,0,1-1.94,1.81,7.12,7.12,0,0,1-2.5,1v.1a8.39,8.39,0,0,1,5.46,2.81,8.64,8.64,0,0,1,2,5.83,13.88,13.88,0,0,1-.15,1.91,9.41,9.41,0,0,1-.59,2.19,9.54,9.54,0,0,1-1.29,2.21,7.81,7.81,0,0,1-2.26,1.91,14,14,0,0,1-3.48,1.34,20.23,20.23,0,0,1-4.94.52h-15V314.09Zm0,15.54a11.93,11.93,0,0,0,3.53-.47,7.18,7.18,0,0,0,2.48-1.29,5.34,5.34,0,0,0,1.49-1.91,5.62,5.62,0,0,0,.5-2.34q0-6.64-8-6.65H159.81v12.66Zm0,17a19.54,19.54,0,0,0,3.58-.32,8.45,8.45,0,0,0,3-1.17,5.92,5.92,0,0,0,2-2.26,7.5,7.5,0,0,0,.75-3.55,5.92,5.92,0,0,0-2.41-5.14q-2.42-1.71-6.93-1.71H159.81v14.15Z"
        transform="translate(-25.02 -209.58)" fill="#122147" />
    <path
        d="M191.56,341.08a9.71,9.71,0,0,0,1.52,3.25,8.6,8.6,0,0,0,2.63,2.38,7.34,7.34,0,0,0,3.82.94,7.59,7.59,0,0,0,5.36-1.78,9.4,9.4,0,0,0,2.69-4.77h3.12a12.49,12.49,0,0,1-3.65,6.75c-1.77,1.59-4.27,2.39-7.52,2.39a12,12,0,0,1-5.24-1.07,9.69,9.69,0,0,1-3.6-2.93,12.91,12.91,0,0,1-2.06-4.32,20,20,0,0,1-.67-5.19,18.83,18.83,0,0,1,.67-5,13.54,13.54,0,0,1,2.06-4.35,10.48,10.48,0,0,1,3.6-3.08,11.19,11.19,0,0,1,5.24-1.16,10.13,10.13,0,0,1,8.81,4.49,13.54,13.54,0,0,1,2,4.62,20.42,20.42,0,0,1,.49,5.29H191.09A14.12,14.12,0,0,0,191.56,341.08Zm15.49-9.56a9.38,9.38,0,0,0-1.61-2.91,8,8,0,0,0-2.53-2,7.29,7.29,0,0,0-3.38-.77,7.37,7.37,0,0,0-3.42.77,8,8,0,0,0-2.54,2,10.23,10.23,0,0,0-1.66,2.93,14.53,14.53,0,0,0-.82,3.4h16.58A11.18,11.18,0,0,0,207.05,331.52Z"
        transform="translate(-25.02 -209.58)" fill="#122147" />
    <path
        d="M218.4,323.92v4.42h.1a7.5,7.5,0,0,1,3.18-3.75,9.34,9.34,0,0,1,5-1.41,12.69,12.69,0,0,1,4.49.69,7.23,7.23,0,0,1,2.91,2,7.34,7.34,0,0,1,1.54,3.11,17.89,17.89,0,0,1,.44,4.12v16.48H233v-16a14.67,14.67,0,0,0-.3-3.05,6.66,6.66,0,0,0-1-2.46,5.14,5.14,0,0,0-2-1.64,7.47,7.47,0,0,0-3.15-.59,7.92,7.92,0,0,0-3.35.67,7.25,7.25,0,0,0-2.48,1.84A8.32,8.32,0,0,0,219,331.1a11.21,11.21,0,0,0-.62,3.5v14.94h-3.13V323.92Z"
        transform="translate(-25.02 -209.58)" fill="#122147" />
    <path d="M245.46,314.09v5h-3.13v-5Zm0,9.83v25.62h-3.13V323.92Z" transform="translate(-25.02 -209.58)"
        fill="#122147" />
    <path
        d="M267.72,324.27a11.17,11.17,0,0,1,3.8,2.93,12.37,12.37,0,0,1,2.33,4.29,17.56,17.56,0,0,1,0,10.48,12.37,12.37,0,0,1-2.33,4.29,10.88,10.88,0,0,1-3.8,2.91,13.1,13.1,0,0,1-10.37,0,10.88,10.88,0,0,1-3.8-2.91,12.37,12.37,0,0,1-2.33-4.29,17.56,17.56,0,0,1,0-10.48,12.37,12.37,0,0,1,2.33-4.29,11.17,11.17,0,0,1,3.8-2.93,12.88,12.88,0,0,1,10.37,0Zm-9.11,2.48a8.68,8.68,0,0,0-2.8,2.48,11.26,11.26,0,0,0-1.69,3.5,14.32,14.32,0,0,0,0,8,11.15,11.15,0,0,0,1.69,3.5,8.68,8.68,0,0,0,2.8,2.48,8.66,8.66,0,0,0,7.85,0,8.68,8.68,0,0,0,2.8-2.48,11.15,11.15,0,0,0,1.69-3.5,14.32,14.32,0,0,0,0-8,11.26,11.26,0,0,0-1.69-3.5,8.68,8.68,0,0,0-2.8-2.48,8.66,8.66,0,0,0-7.85,0Z"
        transform="translate(-25.02 -209.58)" fill="#122147" />
    <path
        d="M284.38,326.55v23h-3.13v-23h-4.37v-2.63h4.37v-2.33a16.89,16.89,0,0,1,.25-3,6,6,0,0,1,.94-2.38,4.47,4.47,0,0,1,1.92-1.54,7.48,7.48,0,0,1,3.1-.55c.46,0,.89,0,1.29.05s.84.08,1.34.15V317l-1.19-.17a8.11,8.11,0,0,0-1.09-.08,4.09,4.09,0,0,0-2,.4,2.45,2.45,0,0,0-1,1.07,4.11,4.11,0,0,0-.37,1.56c0,.6-.05,1.24-.05,1.94v2.23h5.06v2.63Z"
        transform="translate(-25.02 -209.58)" fill="#122147" />
    <path
        d="M299.23,326.55v23H296.1v-23h-4.37v-2.63h4.37v-2.33a16.89,16.89,0,0,1,.25-3,5.7,5.7,0,0,1,.94-2.38,4.44,4.44,0,0,1,1.91-1.54,7.48,7.48,0,0,1,3.1-.55c.47,0,.9,0,1.29.05s.85.08,1.34.15V317l-1.19-.17a8,8,0,0,0-1.09-.08,4.14,4.14,0,0,0-2,.4,2.37,2.37,0,0,0-1,1.07,4.11,4.11,0,0,0-.38,1.56c0,.6,0,1.24,0,1.94v2.23h5.06v2.63Z"
        transform="translate(-25.02 -209.58)" fill="#122147" />
    <path
        d="M345.92,321.17a9.91,9.91,0,0,0-2.48-2.71,11,11,0,0,0-3.23-1.66,11.93,11.93,0,0,0-3.7-.57,12.66,12.66,0,0,0-6.05,1.34,11.92,11.92,0,0,0-4.15,3.55,15.06,15.06,0,0,0-2.38,5,21.45,21.45,0,0,0,0,11.39,15.06,15.06,0,0,0,2.38,5,11.92,11.92,0,0,0,4.15,3.55,12.66,12.66,0,0,0,6.05,1.35,10.69,10.69,0,0,0,4.47-.9,10.49,10.49,0,0,0,3.43-2.43,12.68,12.68,0,0,0,2.33-3.6,14.73,14.73,0,0,0,1.14-4.44h3.38a19.15,19.15,0,0,1-1.54,5.9,14.46,14.46,0,0,1-3.08,4.47,13,13,0,0,1-4.44,2.83,15.66,15.66,0,0,1-5.69,1,16.71,16.71,0,0,1-7.32-1.52,15.22,15.22,0,0,1-5.24-4.05,17.25,17.25,0,0,1-3.13-5.85,24.08,24.08,0,0,1,0-14,17.63,17.63,0,0,1,3.13-5.89,15.15,15.15,0,0,1,5.24-4.07,16.71,16.71,0,0,1,7.32-1.51,16.47,16.47,0,0,1,4.94.74,14.51,14.51,0,0,1,4.37,2.21,13,13,0,0,1,3.28,3.6,12,12,0,0,1,1.66,4.92h-3.37A11.28,11.28,0,0,0,345.92,321.17Z"
        transform="translate(-25.02 -209.58)" fill="#122147" />
    <path
        d="M359.3,314.09v14.25h.1a7.6,7.6,0,0,1,3.18-3.75,9.34,9.34,0,0,1,5-1.41,12.75,12.75,0,0,1,4.5.69,7.26,7.26,0,0,1,2.9,2,7.34,7.34,0,0,1,1.54,3.11,17.33,17.33,0,0,1,.45,4.12v16.48h-3.13v-16a14.67,14.67,0,0,0-.3-3.05,6.66,6.66,0,0,0-1-2.46,5.18,5.18,0,0,0-2-1.64,7.55,7.55,0,0,0-3.16-.59,8,8,0,0,0-3.35.67,7.34,7.34,0,0,0-2.48,1.84,8.32,8.32,0,0,0-1.59,2.78,11.21,11.21,0,0,0-.62,3.5v14.94h-3.13V314.09Z"
        transform="translate(-25.02 -209.58)" fill="#122147" />
    <path d="M386.46,314.09v5h-3.13v-5Zm0,9.83v25.62h-3.13V323.92Z" transform="translate(-25.02 -209.58)"
        fill="#122147" />
    <path d="M396,314.09v35.45h-3.13V314.09Z" transform="translate(-25.02 -209.58)" fill="#122147" />
    <path
        d="M422.06,349.54v-4.87H422a7.52,7.52,0,0,1-1.47,2.29,9.47,9.47,0,0,1-2.21,1.76,11.72,11.72,0,0,1-2.65,1.12,10.59,10.59,0,0,1-2.81.4,11.4,11.4,0,0,1-5.09-1.07,10.19,10.19,0,0,1-3.6-2.93,12.48,12.48,0,0,1-2.13-4.32,19.59,19.59,0,0,1,0-10.38,12.48,12.48,0,0,1,2.13-4.32,10.46,10.46,0,0,1,3.6-3,11.13,11.13,0,0,1,5.09-1.09,11.44,11.44,0,0,1,2.81.34,9.57,9.57,0,0,1,2.55,1.07,9,9,0,0,1,2.11,1.76,7.32,7.32,0,0,1,1.42,2.44h.1v-14.7h3.13v35.45Zm-17.16-8.86a11,11,0,0,0,1.49,3.5,8.34,8.34,0,0,0,2.61,2.51,7.25,7.25,0,0,0,3.82,1,8,8,0,0,0,7-3.47,10.46,10.46,0,0,0,1.54-3.5,16.83,16.83,0,0,0,0-7.9,10.55,10.55,0,0,0-1.54-3.5,8,8,0,0,0-7-3.47,7.16,7.16,0,0,0-3.82,1,8.2,8.2,0,0,0-2.61,2.5,11.11,11.11,0,0,0-1.49,3.5,16.83,16.83,0,0,0,0,7.9Z"
        transform="translate(-25.02 -209.58)" fill="#122147" />
    <path
        d="M434.17,323.92v6h.1a9.83,9.83,0,0,1,3.7-4.82,9.7,9.7,0,0,1,6-1.54v3.13a9.67,9.67,0,0,0-3.87.57,8.94,8.94,0,0,0-3,1.91,8.85,8.85,0,0,0-2,3,9.93,9.93,0,0,0-.69,3.75v13.65h-3.13V323.92Z"
        transform="translate(-25.02 -209.58)" fill="#122147" />
    <path
        d="M449.63,341.08a9.71,9.71,0,0,0,1.52,3.25,8.6,8.6,0,0,0,2.63,2.38,7.34,7.34,0,0,0,3.82.94,7.59,7.59,0,0,0,5.36-1.78,9.4,9.4,0,0,0,2.69-4.77h3.12a12.49,12.49,0,0,1-3.65,6.75c-1.77,1.59-4.27,2.39-7.52,2.39a11.9,11.9,0,0,1-5.23-1.07,9.53,9.53,0,0,1-3.6-2.93,12.53,12.53,0,0,1-2.06-4.32,19.53,19.53,0,0,1-.67-5.19,18.42,18.42,0,0,1,.67-5,13.14,13.14,0,0,1,2.06-4.35,10.3,10.3,0,0,1,3.6-3.08,11.12,11.12,0,0,1,5.23-1.16,10.51,10.51,0,0,1,5.27,1.24,10.66,10.66,0,0,1,3.55,3.25,13.53,13.53,0,0,1,2,4.62,20.42,20.42,0,0,1,.49,5.29H449.16A14.12,14.12,0,0,0,449.63,341.08Zm15.49-9.56a9.38,9.38,0,0,0-1.61-2.91,8,8,0,0,0-2.53-2,7.29,7.29,0,0,0-3.38-.77,7.37,7.37,0,0,0-3.42.77,8,8,0,0,0-2.54,2,10.48,10.48,0,0,0-1.66,2.93,14.53,14.53,0,0,0-.82,3.4h16.59A11.5,11.5,0,0,0,465.12,331.52Z"
        transform="translate(-25.02 -209.58)" fill="#122147" />
    <path
        d="M476.57,323.92v4.42h.1a7.53,7.53,0,0,1,3.17-3.75,9.4,9.4,0,0,1,5-1.41,12.69,12.69,0,0,1,4.49.69,7.23,7.23,0,0,1,2.91,2,7.46,7.46,0,0,1,1.54,3.11,17.89,17.89,0,0,1,.44,4.12v16.48h-3.13v-16a14.69,14.69,0,0,0-.29-3.05,6.51,6.51,0,0,0-1.05-2.46,5,5,0,0,0-2-1.64,7.47,7.47,0,0,0-3.15-.59,7.92,7.92,0,0,0-3.35.67,7.25,7.25,0,0,0-2.48,1.84,8.32,8.32,0,0,0-1.59,2.78,11.21,11.21,0,0,0-.62,3.5v14.94h-3.13V323.92Z"
        transform="translate(-25.02 -209.58)" fill="#122147" />
    <path
        d="M504.47,319.4a8.76,8.76,0,0,1-.27,2.16,7.14,7.14,0,0,1-.82,2,6.36,6.36,0,0,1-1.36,1.61,4.84,4.84,0,0,1-2,1V324a2.3,2.3,0,0,0,1.1-.72,4.9,4.9,0,0,0,.74-1.22,6,6,0,0,0,.42-1.41,5.08,5.08,0,0,0,.08-1.32H500.3v-5.26h4.17Z"
        transform="translate(-25.02 -209.58)" fill="#122147" />
    <path
        d="M524.08,328.91a5,5,0,0,0-1.46-1.76,6.27,6.27,0,0,0-2.11-1,9.85,9.85,0,0,0-2.53-.32,10.15,10.15,0,0,0-2.11.22,6.43,6.43,0,0,0-2,.75,4.09,4.09,0,0,0-1.44,1.36,3.74,3.74,0,0,0-.55,2.09,2.91,2.91,0,0,0,.52,1.76,4.68,4.68,0,0,0,1.32,1.22,8.7,8.7,0,0,0,1.74.82c.62.21,1.2.38,1.73.52l4.17.94a11.67,11.67,0,0,1,2.66.72,8.42,8.42,0,0,1,2.33,1.37,6.58,6.58,0,0,1,1.67,2.08,6.27,6.27,0,0,1,.64,2.93,6.42,6.42,0,0,1-.94,3.55,7.61,7.61,0,0,1-2.41,2.38,10.47,10.47,0,0,1-3.3,1.32,17.47,17.47,0,0,1-3.63.4,11.79,11.79,0,0,1-7.32-2.14c-1.87-1.42-2.94-3.71-3.2-6.85H511a6.16,6.16,0,0,0,2.31,4.79,8.32,8.32,0,0,0,5.23,1.61,12.19,12.19,0,0,0,2.36-.24,7.59,7.59,0,0,0,2.26-.85,5.32,5.32,0,0,0,1.71-1.51,3.73,3.73,0,0,0,.67-2.26,3.54,3.54,0,0,0-.47-1.91,3.88,3.88,0,0,0-1.26-1.29,7.87,7.87,0,0,0-1.82-.87c-.67-.23-1.36-.43-2.06-.6l-4-.89a23.51,23.51,0,0,1-2.83-.92,9.32,9.32,0,0,1-2.26-1.29,5.45,5.45,0,0,1-1.51-1.89,7,7,0,0,1,.32-6.08,6.69,6.69,0,0,1,2.26-2.23,10.5,10.5,0,0,1,3.1-1.25,15.36,15.36,0,0,1,3.4-.39,12.48,12.48,0,0,1,3.6.49,8.3,8.3,0,0,1,2.93,1.54,7.51,7.51,0,0,1,2,2.58,9.32,9.32,0,0,1,.85,3.63h-3.13A5.77,5.77,0,0,0,524.08,328.91Z"
        transform="translate(-25.02 -209.58)" fill="#122147" />
    <path d="M550.35,314.09v15.39h21V314.09h3.37v35.45H571.4V332.36h-21v17.18H547V314.09Z"
        transform="translate(-25.02 -209.58)" fill="#122147" />
    <path
        d="M596.45,324.27a11.36,11.36,0,0,1,3.8,2.93,12.7,12.7,0,0,1,2.33,4.29,17.77,17.77,0,0,1,0,10.48,12.7,12.7,0,0,1-2.33,4.29,11.06,11.06,0,0,1-3.8,2.91,13.12,13.12,0,0,1-10.38,0,11.06,11.06,0,0,1-3.8-2.91,12.7,12.7,0,0,1-2.33-4.29,17.77,17.77,0,0,1,0-10.48,12.7,12.7,0,0,1,2.33-4.29,11.36,11.36,0,0,1,3.8-2.93,12.9,12.9,0,0,1,10.38,0Zm-9.11,2.48a8.71,8.71,0,0,0-2.81,2.48,11.48,11.48,0,0,0-1.69,3.5,14.32,14.32,0,0,0,0,8,11.37,11.37,0,0,0,1.69,3.5,8.71,8.71,0,0,0,2.81,2.48,8.64,8.64,0,0,0,7.84,0,8.71,8.71,0,0,0,2.81-2.48,11.6,11.6,0,0,0,1.69-3.5,14.32,14.32,0,0,0,0-8,11.72,11.72,0,0,0-1.69-3.5,8.71,8.71,0,0,0-2.81-2.48,8.64,8.64,0,0,0-7.84,0Z"
        transform="translate(-25.02 -209.58)" fill="#122147" />
    <path
        d="M623,328.91a5.15,5.15,0,0,0-1.47-1.76,6.18,6.18,0,0,0-2.11-1,9.85,9.85,0,0,0-2.53-.32,10.15,10.15,0,0,0-2.11.22,6.43,6.43,0,0,0-2,.75,4.09,4.09,0,0,0-1.44,1.36,3.74,3.74,0,0,0-.55,2.09,3,3,0,0,0,.52,1.76,4.68,4.68,0,0,0,1.32,1.22,8.7,8.7,0,0,0,1.74.82c.62.21,1.2.38,1.73.52l4.17.94a11.67,11.67,0,0,1,2.66.72,8.28,8.28,0,0,1,2.33,1.37,6.58,6.58,0,0,1,1.67,2.08,6.27,6.27,0,0,1,.64,2.93,6.42,6.42,0,0,1-.94,3.55,7.61,7.61,0,0,1-2.41,2.38,10.47,10.47,0,0,1-3.3,1.32,17.45,17.45,0,0,1-3.62.4A11.8,11.8,0,0,1,610,348.1c-1.87-1.42-2.94-3.71-3.2-6.85h3.13a6.16,6.16,0,0,0,2.31,4.79,8.32,8.32,0,0,0,5.23,1.61,12.12,12.12,0,0,0,2.36-.24,7.59,7.59,0,0,0,2.26-.85,5.32,5.32,0,0,0,1.71-1.51,3.73,3.73,0,0,0,.67-2.26,3.54,3.54,0,0,0-.47-1.91,3.88,3.88,0,0,0-1.26-1.29,7.87,7.87,0,0,0-1.82-.87c-.67-.23-1.36-.43-2.06-.6l-4-.89a23.51,23.51,0,0,1-2.83-.92,9.32,9.32,0,0,1-2.26-1.29,5.45,5.45,0,0,1-1.51-1.89,6.26,6.26,0,0,1-.55-2.75,6.14,6.14,0,0,1,.87-3.33,6.69,6.69,0,0,1,2.26-2.23,10.5,10.5,0,0,1,3.1-1.25,15.38,15.38,0,0,1,3.41-.39,12.46,12.46,0,0,1,3.59.49,8.3,8.3,0,0,1,2.93,1.54,7.51,7.51,0,0,1,2,2.58,9.32,9.32,0,0,1,.85,3.63h-3.13A5.91,5.91,0,0,0,623,328.91Z"
        transform="translate(-25.02 -209.58)" fill="#122147" />
    <path
        d="M635.25,323.92v4.87h.1a8.39,8.39,0,0,1,3.55-4.15,10.75,10.75,0,0,1,5.58-1.46,11.1,11.1,0,0,1,5.09,1.09,10.46,10.46,0,0,1,3.6,3,12.67,12.67,0,0,1,2.14,4.32,19.86,19.86,0,0,1,0,10.38,12.67,12.67,0,0,1-2.14,4.32,10.19,10.19,0,0,1-3.6,2.93,11.37,11.37,0,0,1-5.09,1.07,11.57,11.57,0,0,1-2.78-.35,9.72,9.72,0,0,1-2.58-1.05,8.55,8.55,0,0,1-2.11-1.73,7.47,7.47,0,0,1-1.41-2.44h-.1V359h-3.13V323.92Zm17.15,8.86a10.89,10.89,0,0,0-1.49-3.5,8.28,8.28,0,0,0-2.6-2.5,7.19,7.19,0,0,0-3.83-1,9.47,9.47,0,0,0-4.32.89,7.61,7.61,0,0,0-2.78,2.38,9.55,9.55,0,0,0-1.46,3.48,20.06,20.06,0,0,0-.42,4.17,16.6,16.6,0,0,0,.47,3.95,10.07,10.07,0,0,0,1.54,3.5,8,8,0,0,0,7,3.47,7.28,7.28,0,0,0,3.83-1,8.42,8.42,0,0,0,2.6-2.51,10.8,10.8,0,0,0,1.49-3.5,16.83,16.83,0,0,0,0-7.9Z"
        transform="translate(-25.02 -209.58)" fill="#122147" />
    <path d="M664.29,314.09v5h-3.13v-5Zm0,9.83v25.62h-3.13V323.92Z" transform="translate(-25.02 -209.58)"
        fill="#122147" />
    <path
        d="M680.67,323.92v2.63h-5.21v17.28a5.63,5.63,0,0,0,.42,2.41c.29.58,1,.9,2.11,1a23.94,23.94,0,0,0,2.68-.15v2.63c-.46,0-.92,0-1.38.05s-.93.05-1.4.05c-2.08,0-3.54-.41-4.36-1.22s-1.23-2.31-1.2-4.49V326.55h-4.46v-2.63h4.46v-7.69h3.13v7.69Z"
        transform="translate(-25.02 -209.58)" fill="#122147" />
    <path
        d="M686.44,327.89a7.2,7.2,0,0,1,2.16-2.68,9.16,9.16,0,0,1,3.2-1.54,15.6,15.6,0,0,1,4.07-.49,18.5,18.5,0,0,1,3.38.32,8,8,0,0,1,3,1.22,6.62,6.62,0,0,1,2.19,2.5,9.12,9.12,0,0,1,.84,4.2V345a1.65,1.65,0,0,0,1.84,1.89,2.47,2.47,0,0,0,1-.2v2.63c-.36.07-.69.12-1,.15a10,10,0,0,1-1.06.05,4.85,4.85,0,0,1-1.92-.32,2.59,2.59,0,0,1-1.11-.92,3.35,3.35,0,0,1-.52-1.42,11.15,11.15,0,0,1-.13-1.81h-.1a19.7,19.7,0,0,1-1.71,2.21,8.24,8.24,0,0,1-1.94,1.61,8.56,8.56,0,0,1-2.43,1,13.36,13.36,0,0,1-3.25.35,12.86,12.86,0,0,1-3.35-.43,7.34,7.34,0,0,1-2.73-1.34,6.42,6.42,0,0,1-1.84-2.33,7.7,7.7,0,0,1-.67-3.35,6.66,6.66,0,0,1,1.19-4.2,7.57,7.57,0,0,1,3.15-2.31,17.76,17.76,0,0,1,4.42-1.11c1.64-.22,3.3-.42,5-.62.66-.07,1.24-.15,1.74-.25a3,3,0,0,0,1.24-.52,2.43,2.43,0,0,0,.77-1,4.42,4.42,0,0,0,.27-1.69,5.69,5.69,0,0,0-.52-2.61,4.07,4.07,0,0,0-1.44-1.61,5.74,5.74,0,0,0-2.13-.82,14.35,14.35,0,0,0-2.61-.22,7.89,7.89,0,0,0-4.86,1.41,5.57,5.57,0,0,0-2,4.55h-3.13A10.49,10.49,0,0,1,686.44,327.89Zm15.64,7.65a1.79,1.79,0,0,1-1.15.79,10.05,10.05,0,0,1-1.49.35c-1.32.23-2.69.44-4.09.62a22.65,22.65,0,0,0-3.85.82,7.64,7.64,0,0,0-2.85,1.56,3.72,3.72,0,0,0-1.12,2.91,4.49,4.49,0,0,0,.47,2.11,5.13,5.13,0,0,0,1.27,1.59,5.54,5.54,0,0,0,1.83,1,6.79,6.79,0,0,0,2.14.34,10.83,10.83,0,0,0,3.42-.54,8.56,8.56,0,0,0,2.86-1.59,7.78,7.78,0,0,0,1.93-2.53,7.69,7.69,0,0,0,.72-3.38v-4.07Z"
        transform="translate(-25.02 -209.58)" fill="#122147" />
    <path d="M716.08,314.09v35.45H713V314.09Z" transform="translate(-25.02 -209.58)" fill="#122147" />
    <path
        d="M737.28,328.91a5,5,0,0,0-1.47-1.76,6.18,6.18,0,0,0-2.11-1,9.79,9.79,0,0,0-2.53-.32,10.22,10.22,0,0,0-2.11.22,6.53,6.53,0,0,0-2,.75,4.09,4.09,0,0,0-1.44,1.36,3.82,3.82,0,0,0-.55,2.09,2.92,2.92,0,0,0,.53,1.76,4.51,4.51,0,0,0,1.31,1.22,8.7,8.7,0,0,0,1.74.82c.63.21,1.21.38,1.74.52l4.17.94a11.59,11.59,0,0,1,2.65.72,8.48,8.48,0,0,1,2.34,1.37,6.7,6.7,0,0,1,1.66,2.08,6.27,6.27,0,0,1,.65,2.93,6.42,6.42,0,0,1-.95,3.55,7.61,7.61,0,0,1-2.41,2.38,10.29,10.29,0,0,1-3.3,1.32,17.38,17.38,0,0,1-3.62.4,11.84,11.84,0,0,1-7.33-2.14c-1.87-1.42-2.93-3.71-3.2-6.85h3.13a6.16,6.16,0,0,0,2.31,4.79,8.34,8.34,0,0,0,5.24,1.61,12.09,12.09,0,0,0,2.35-.24,7.49,7.49,0,0,0,2.26-.85,5.47,5.47,0,0,0,1.72-1.51,3.8,3.8,0,0,0,.67-2.26,3.63,3.63,0,0,0-.47-1.91,4,4,0,0,0-1.27-1.29,7.79,7.79,0,0,0-1.81-.87c-.68-.23-1.37-.43-2.06-.6l-4-.89a22.94,22.94,0,0,1-2.83-.92,9,9,0,0,1-2.26-1.29,5.48,5.48,0,0,1-1.52-1.89,6.27,6.27,0,0,1-.54-2.75,6.14,6.14,0,0,1,.87-3.33,6.67,6.67,0,0,1,2.25-2.23,10.56,10.56,0,0,1,3.11-1.25,15.23,15.23,0,0,1,3.4-.39,12.58,12.58,0,0,1,3.6.49,8.39,8.39,0,0,1,2.93,1.54,7.76,7.76,0,0,1,2,2.58,9.5,9.5,0,0,1,.84,3.63h-3.13A5.91,5.91,0,0,0,737.28,328.91Z"
        transform="translate(-25.02 -209.58)" fill="#122147" />
    <path
        d="M137.32,319.67v-6.76H111.59v24.92a8.66,8.66,0,0,0-3.23-6.77,16.24,16.24,0,0,0-6.28-2.65l-6.38-1.5a22.2,22.2,0,0,1-4.84-1.5,3.38,3.38,0,0,1-1.47-1.48v0a3.4,3.4,0,0,1-.3-1.42,3.69,3.69,0,0,1,1.18-2.8h0l0-.05h0a5.19,5.19,0,0,1,.58-.44A8.63,8.63,0,0,1,95.7,318a10,10,0,0,1,4.52.92,5.19,5.19,0,0,1,2.93,4.66h7.31a10.82,10.82,0,0,0-4.31-8.84,16.15,16.15,0,0,0-9.93-3.05c-4.64,0-8.17,1.07-10.56,3.23a10.48,10.48,0,0,0-3.07,4.6,11,11,0,0,0-.3,1.16c-.89,4.19-3.59,7-8.11,7-7.23,0-9.94-6.15-9.94-12.25,0-6.4,2.71-12.55,9.94-12.55,4,0,7.49,2.76,8,6.4H90c-1-8.46-7.74-13.17-15.79-13.17-10.8,0-17.36,7.69-17.94,17.83V297H48.19v22.76c0,5.43-1.84,7.94-7.58,7.94-6.52,0-7.54-3.94-7.54-7.94V297H25v22.76c0,9.94,5.74,14.71,15.59,14.71s15.63-4.82,15.63-14.71v-2.86c.58,9.88,7.14,17.57,17.94,17.57a16,16,0,0,0,11-4c.17.14.35.28.54.41q2.16,1.5,8,2.79l3.94.86a17.15,17.15,0,0,1,5,1.7,3.12,3.12,0,0,1,1.59,2.79,4.2,4.2,0,0,1-3.25,4.21,13.49,13.49,0,0,1-4.46.6c-3.06,0-5.21-.75-6.47-2.25a7.38,7.38,0,0,1-1.39-3.72H81.47a10.74,10.74,0,0,0,4.11,8.92q4.13,3.24,11.3,3.24t10.89-3.29a10.41,10.41,0,0,0,3.82-7.49v10.24h8V334.39H135v-6.26H119.64v-8.46Z"
        transform="translate(-25.02 -209.58)" fill="#122147" />
    <path
        d="M317.36,247.62a5.23,5.23,0,0,0-2,.41l-27.12-18.6a10.75,10.75,0,0,0-3.8-19.72,10.54,10.54,0,0,0-12,8.9,10.71,10.71,0,0,0,6.36,11.53l-26.13,18.08a5.23,5.23,0,0,0-2.1-.44,5.35,5.35,0,1,0,5.1,6.58l18-5.54-13.18,39.86,12.16.86,11.69-25.35,11.48,25.34,12.85-.84L294.5,248.82l17.85,5.92A5.29,5.29,0,0,0,322.68,253a5.36,5.36,0,0,0-5.32-5.4"
        transform="translate(-25.02 -209.58)" fill="#716fb3" /></svg>