<svg xmlns="http://www.w3.org/2000/svg" width="779.18" height="365.3" viewBox="0 0 779.18 365.3"><path d="M621.34,75.44a5.66,5.66,0,0,0-1.66.28L591,61.86a11.69,11.69,0,0,0,6.46-13.17c1.94-.43,3.21-1.24,3.46-2.39.6-2.69-4.64-6.18-11.68-7.79s-13.24-.74-13.83,2c-.26,1.11.52,2.34,2,3.54a11.52,11.52,0,0,0-2.09,4.15,11.66,11.66,0,0,0,5.43,13.26L548.81,71.87l.49,2.36a6.53,6.53,0,0,1,.67,2.35,8.35,8.35,0,0,1,0,1l.36,2.33L574,77.43l-13.12,45.2,13.21,2.26,10.48-23,9.11,24.18,13.35-.75L598.35,80l18.13,4.32a5.67,5.67,0,0,0,4.86,2.78,5.85,5.85,0,0,0,0-11.69" transform="translate(-4.05 -7.22)" fill="#9dc23b"/><path d="M545.88,69.39a6.27,6.27,0,0,0-3.21.9L506.41,53.56a13.29,13.29,0,0,0,7.14-8.71c.06-.21.08-.4.13-.61a7.26,7.26,0,0,0,.58-.72,1.76,1.76,0,0,0,.25-.65,2.19,2.19,0,0,0,0-.4s0,0,0-.07.07-.19.13-.33a1.48,1.48,0,0,1,0-.19,1.58,1.58,0,0,0,.24-.41c-.07-.38-.07-.38-.11-.56a.94.94,0,0,1,.12-.18,1.81,1.81,0,0,0,.1-.62s0,0,0,0a5.57,5.57,0,0,0,.13-.6,1.74,1.74,0,0,0,.29-.25,3.82,3.82,0,0,0,.09-1.25,1.62,1.62,0,0,0-.34-.61l-.6-.23,0,0c0-.19,0-.29,0-.67a1.77,1.77,0,0,0-.31-.75l-.21-.07a1.55,1.55,0,0,0-.3-.77l-.35-.11c0-.23-.07-.4-.07-.4a3.59,3.59,0,0,0-.51-.82,1.45,1.45,0,0,0-.46-.11v-.07a1.61,1.61,0,0,0-.14-.41l-.16-.31s-.05,0-.08,0-.1-.25-.23-.63h-.06c0-.09-.05-.16-.08-.28a1.73,1.73,0,0,0-.42-.31,1,1,0,0,0-.92-.72l-.19,0a1,1,0,0,0-.35-.59l-.1-.09a1,1,0,0,0-.83-.22l-.24,0-.26-.2c0-.09,0-.19-.06-.31L508,29a2,2,0,0,0-.44-.44l-.64-.09a.81.81,0,0,1-.17,0h-.18a1.28,1.28,0,0,0-.21-.16c-.2-.12-.2-.12-.8-.23h-.15a4.64,4.64,0,0,0-.75-.69,1.51,1.51,0,0,0-.63,0l-.46.12a.59.59,0,0,0-.08.08,5.12,5.12,0,0,0-.46-.75,1.52,1.52,0,0,0-1,.12l0,0a1.54,1.54,0,0,0-1,.35.67.67,0,0,0-.26-.09l-.12,0a1.08,1.08,0,0,0-1.11-.11l-.45.35a.92.92,0,0,0-.14.14,2.57,2.57,0,0,0-.35-.29l-.23-.17a.84.84,0,0,0-.28-.17,1,1,0,0,0-1.34.62c-.05,0-.13,0-.21.05l-.12.06a.89.89,0,0,0-.45.36l-.07.12a1,1,0,0,0-.14.2,1,1,0,0,0-.44.11l-.06-.05-.21-.09a1,1,0,0,0-1.17.29,1.62,1.62,0,0,0-.38.49h-.07a1,1,0,0,0-1.1.37l-.18.25a3.1,3.1,0,0,0-.36,1.06l-.18.13a.46.46,0,0,1-.07.07.84.84,0,0,0-.33.28l-.14.15a.15.15,0,0,1,0,.06,1.3,1.3,0,0,0-.46.21l-.12.09a.82.82,0,0,0-.2.26,2.08,2.08,0,0,0-.48.11l-.29.11a1,1,0,0,0-.57.55l-.06.15a1,1,0,0,0,.06.88.24.24,0,0,0,0,.08.3.3,0,0,0-.11.06l-.22.08a1.08,1.08,0,0,0-.56.95,1.06,1.06,0,0,0-.3,1.36v0c-.28,0-.48.31-.72.47l-.23.21a1,1,0,0,0-.15,1.24l0,0a.93.93,0,0,1,.08.2l-.3,1a2,2,0,0,0,.09.2l.08.1a2.68,2.68,0,0,1,.05.3,1,1,0,0,0-.28,1.41l.2.25a2.3,2.3,0,0,0,.21.93c-.06-.13-.13-.22-.19-.33v-.19a1,1,0,0,0,.11.83l.37.47.09.11h0a1.07,1.07,0,0,0,.75.41,13.32,13.32,0,0,0,6.67,9.28L459.05,70.4a8.5,8.5,0,0,1,2.23,6.54c-.06.7-1.34,1.48-1.55,2.12L487.43,74l-9.26,34.46,5.46.41-.08,17.64,12.26.56,3.72-18,4.76.13,2.86,18.07,13-.44-.05-16.92,5.15.4-8.8-33.47,24.27,2.87a6.36,6.36,0,0,0,5.12,2.63,6.49,6.49,0,0,0,0-13" transform="translate(-4.05 -7.22)" fill="#0093d0"/><path d="M271.72,82.21l.56-1.27L239.74,68.21a10.32,10.32,0,0,0,4.62-6.9,1,1,0,0,0,.81-.23l.22-.17.37-.42a1.13,1.13,0,0,0,.16-.82l.28-.31a1.06,1.06,0,0,0,.06-1l-.12-.28a2.57,2.57,0,0,0-.53-.56l-.07,0,0-.21a1,1,0,0,0-.31-.42,1,1,0,0,0,0-.3c-.1-.24-.1-.24-.17-.44a.29.29,0,0,0,0-.06,3.25,3.25,0,0,0-.61-2.2c-.6-.36-.85-.51-1.16-.71a2.44,2.44,0,0,0-.22-.78.92.92,0,0,1-.14-.14s0-.14,0-.38a1.43,1.43,0,0,0-.21-.54,5.13,5.13,0,0,0-.6-.4,3.33,3.33,0,0,0-.54-.87c-.64-.26-.64-.26-.77-.3a1.76,1.76,0,0,0-.51-.14l-.06,0-.54-.34a1.5,1.5,0,0,0-.59-.24l-.38.09-.55-.46a2.28,2.28,0,0,0-.27-.13.79.79,0,0,0-.08-.16,1.74,1.74,0,0,0-.71-.51l-.64.19-1.08.32a2.13,2.13,0,0,0-.23-.32,4.7,4.7,0,0,1-.66-.6,1.58,1.58,0,0,0-.78-.39c-.39.19-.39.19-.78.41a5.27,5.27,0,0,0-.89,1,1.68,1.68,0,0,0-.36-.06l-.53.22a2.27,2.27,0,0,0-.35-.26,4.24,4.24,0,0,0-2,1s0,0-.06,0a3.75,3.75,0,0,0-2.16.4c-.1.52-.18.9-.23,1.24,0,.05-.05.07-.06.12l0,.17s0,.06,0,.08a1,1,0,0,0,.06.54V52l-.23.15a.3.3,0,0,0-.07.08h0l-.59.41-.08.06-.4-.07a1.58,1.58,0,0,0-1,0c-.26.44-.26.44-.19.39a2.07,2.07,0,0,0-.31,2.3c.16.19.27.31.37.45a1.79,1.79,0,0,0-.44.49,1.71,1.71,0,0,0,.08.29,6.14,6.14,0,0,0-.61.45,2.76,2.76,0,0,0-.42,2.85l.54.2a3.79,3.79,0,0,0-.85,1.25c.64,1,1,1.62,1.78,1.9a7.72,7.72,0,0,0,1-.16,10.4,10.4,0,0,0,5.83,6L227,71.28a3.13,3.13,0,0,0-1.78-1.35,3.19,3.19,0,0,0-3.89,2.24l-.4,1.44a9.45,9.45,0,0,0-2.26.12,7.87,7.87,0,0,0-.33-2.91,7.18,7.18,0,0,0-4.88-4.69,2.34,2.34,0,0,0-.06-1.38,2.44,2.44,0,0,0-3.1-1.58,2.51,2.51,0,0,0-1.56,3.16,1.45,1.45,0,0,0,.11.25,6.67,6.67,0,0,0-3.2,3.24,2.43,2.43,0,0,0-2.19-.33,2.49,2.49,0,0,0-1.56,3.16,2.43,2.43,0,0,0,3.1,1.58l.09,0a5.62,5.62,0,0,0,.23,1A7,7,0,0,0,212,80.11c-.05.17-.07.35-.11.51l-2.41,1.49.16.31-.44.22a4.57,4.57,0,0,0-3.28-.31,4.78,4.78,0,0,0-3.27,5.88,4.69,4.69,0,0,0,5.79,3.34,4.76,4.76,0,0,0,3.15-3l1.67-.28a14.24,14.24,0,0,0,1.5,2.17,12.34,12.34,0,0,0,3.61,2.83,4.55,4.55,0,0,0,.69,4.84,4.32,4.32,0,0,0,5.92.54l-4.4,27.82,11.79.62,6.29-23.42,11,22.39,11.6-2L249.65,85.18l20.59,2.18-.92-1.24a5.29,5.29,0,0,1-.09-.8c0-2,1-2.1,2.49-3.11" transform="translate(-4.05 -7.22)" fill="#f58025"/><path d="M348.31,71,316.14,55.82a10.84,10.84,0,0,0,5.26-7.52.08.08,0,0,1,0,0,2.45,2.45,0,0,0,1.33-.43c.38.65.87,2.05,2.16,1-.11,1.73,1,1.32,1.4,1.21a1.25,1.25,0,0,0,.33.76c-1.23-.15-1.62.93-2.91,1.53.59,1.07,2.49,0,3.38.39.5.21-.2,1.52.45,2.34,1.28.22,1.39-1.63,2.05-1.61.29,1.17.17,1.83.74,2.48,1.92,2.16,2.84.67,3.79,1.1-1.16-2.76-1.35-1.93-1.37-2.51.28-.31,1.32.43,1.81.36a10.63,10.63,0,0,0-2.79-2.59,12.63,12.63,0,0,1,1.84,0c1.2-.14.56-.66,1.42-1.46a4.38,4.38,0,0,1-2.56-.75c-.26-1.27.19-2.2-.79-3.06-1.32,1.13-.63,1.62-1.57,2.47,0,0,.34-2.66-1.61-1.19-.05-.75-.53-2.24-2.3-1.35-.15-.92-.57-2.16-2-1.4-.18-.88-.54-1.29-.93-1.42A12.66,12.66,0,0,0,309.81,33a12.79,12.79,0,0,0-11.64,13.77c.05.47.11.92.19,1.36a1.94,1.94,0,0,0-.58,1.46c-1.56-.53-1.78.76-1.8,1.71-1.87-.62-2.12.91-2.08,1.66-2.15-1.14-1.4,1.43-1.39,1.42-1.07-.67-1.84-1-1.92-2.18-.85,1-.26,1.86-.35,3.15-.66.37-.86-.23-2.41,1.13,1,.66.43,1.28,1.62,1.22a11.18,11.18,0,0,1,1.83-.24,10.58,10.58,0,0,0-2.36,3c.5,0,1.41-.91,1.75-.64,0,.56-.27-.23-1,2.7.89-.57,2,.76,3.58-1.68.47-.72.26-1.36.38-2.57a2.65,2.65,0,0,1,2.25,1.28c2-.76-1.14-2.75,3.38-3.29a2.48,2.48,0,0,0-3.1-1.07,1.22,1.22,0,0,0,.21-.8c.36,0,1.56.27,1.21-1.42,1.43.89,1.7-.58,2-1.28a2.17,2.17,0,0,0,2,0,10.66,10.66,0,0,0,5,4.66l-29.92,24a5.34,5.34,0,0,0-2.68-.74,5.59,5.59,0,0,0,0,11.18,5.49,5.49,0,0,0,5.25-4l22.36-11.36L290.35,110.2l8,.69-1.07,16L310,128l2.26-16.53,5.49,0L320,128.22l12.33,0-1-17.17,7.84-.54-13.16-35,20.63,3.25.09-.57c-.18-.57-.31.44-.36-.18a8.1,8.1,0,0,1,1.65-5.81Z" transform="translate(-4.05 -7.22)" fill="#ed1849"/><path d="M231.91,335.24v3H212.2v13.21h17.51v3H212.2V371.8h-3.48V335.24Z" transform="translate(-4.05 -7.22)" fill="#122147"/><path d="M238.39,363.07a9.81,9.81,0,0,0,1.56,3.35,8.94,8.94,0,0,0,2.72,2.46,7.55,7.55,0,0,0,3.94,1,7.84,7.84,0,0,0,5.53-1.84,9.7,9.7,0,0,0,2.76-4.92h3.23a12.9,12.9,0,0,1-3.76,7q-2.75,2.44-7.76,2.45a12.19,12.19,0,0,1-5.4-1.1,10,10,0,0,1-3.72-3,13.2,13.2,0,0,1-2.12-4.45,20.32,20.32,0,0,1-.69-5.35,19.21,19.21,0,0,1,.69-5.12,13.73,13.73,0,0,1,2.12-4.48,10.66,10.66,0,0,1,3.72-3.18,11.42,11.42,0,0,1,5.4-1.2,10.45,10.45,0,0,1,9.09,4.63,13.87,13.87,0,0,1,2,4.76,20.86,20.86,0,0,1,.51,5.46H237.9A14.1,14.1,0,0,0,238.39,363.07Zm16-9.86a9.7,9.7,0,0,0-1.67-3,8.07,8.07,0,0,0-2.61-2.1,7.47,7.47,0,0,0-3.48-.8,7.63,7.63,0,0,0-3.54.8,8.07,8.07,0,0,0-2.61,2.1,10.35,10.35,0,0,0-1.71,3,14.78,14.78,0,0,0-.85,3.5H255A11.91,11.91,0,0,0,254.37,353.21Z" transform="translate(-4.05 -7.22)" fill="#122147"/><path d="M273.44,345.38v2.71h-5.38v17.82a5.74,5.74,0,0,0,.44,2.48c.29.6,1,.93,2.17,1a25.57,25.57,0,0,0,2.77-.15V372c-.48,0-1,0-1.44.05s-.95.05-1.43.05c-2.15,0-3.65-.41-4.5-1.25s-1.27-2.38-1.23-4.64V348.09h-4.61v-2.71h4.61v-7.94h3.22v7.94Z" transform="translate(-4.05 -7.22)" fill="#122147"/><path d="M279.17,349.47a7.58,7.58,0,0,1,2.23-2.76,9.38,9.38,0,0,1,3.3-1.59,16.22,16.22,0,0,1,4.2-.51,18.64,18.64,0,0,1,3.48.33,8.32,8.32,0,0,1,3.13,1.26,6.78,6.78,0,0,1,2.25,2.58,9.34,9.34,0,0,1,.87,4.33v14a1.69,1.69,0,0,0,1.89,1.94,2.46,2.46,0,0,0,1-.2v2.71l-1,.16a10.88,10.88,0,0,1-1.1.05,4.71,4.71,0,0,1-2-.34,2.57,2.57,0,0,1-1.15-.94,3.41,3.41,0,0,1-.54-1.46,12,12,0,0,1-.13-1.87h-.1a22,22,0,0,1-1.77,2.28,8.75,8.75,0,0,1-2,1.66,9.06,9.06,0,0,1-2.5,1,14.27,14.27,0,0,1-3.36.35,13.15,13.15,0,0,1-3.45-.43,7.74,7.74,0,0,1-2.82-1.38,6.86,6.86,0,0,1-1.9-2.41,8,8,0,0,1-.69-3.46,6.81,6.81,0,0,1,1.23-4.32,7.74,7.74,0,0,1,3.25-2.38,18.78,18.78,0,0,1,4.56-1.16l5.15-.64a17.18,17.18,0,0,0,1.79-.25,3,3,0,0,0,1.28-.54,2.48,2.48,0,0,0,.79-1.05,4.46,4.46,0,0,0,.28-1.74,5.88,5.88,0,0,0-.53-2.69,4.28,4.28,0,0,0-1.49-1.66,6.05,6.05,0,0,0-2.2-.85,15.23,15.23,0,0,0-2.69-.23,8.17,8.17,0,0,0-5,1.46,5.72,5.72,0,0,0-2,4.69H278.2A10.84,10.84,0,0,1,279.17,349.47Zm16.13,7.89a1.86,1.86,0,0,1-1.18.82,12.56,12.56,0,0,1-1.53.36c-1.37.23-2.78.45-4.23.64a21.9,21.9,0,0,0-4,.84,7.8,7.8,0,0,0-2.95,1.61,3.85,3.85,0,0,0-1.15,3,4.67,4.67,0,0,0,.49,2.18,5.12,5.12,0,0,0,1.3,1.63,5.77,5.77,0,0,0,1.9,1.05,6.85,6.85,0,0,0,2.2.36,11.24,11.24,0,0,0,3.53-.56,8.75,8.75,0,0,0,2.95-1.64,8,8,0,0,0,2-2.61,7.86,7.86,0,0,0,.74-3.48v-4.2Z" transform="translate(-4.05 -7.22)" fill="#122147"/><path d="M308.77,335.24V371.8h-3.23V335.24Z" transform="translate(-4.05 -7.22)" fill="#122147"/><path d="M355.57,335.24v3H342.82V371.8h-3.48V338.21h-12.7v-3Z" transform="translate(-4.05 -7.22)" fill="#122147"/><path d="M361.76,345.38v6.19h.11a10.21,10.21,0,0,1,3.81-5,10,10,0,0,1,6.17-1.58v3.22a9.86,9.86,0,0,0-4,.59,9,9,0,0,0-3.1,2,8.84,8.84,0,0,0-2,3.05,10.18,10.18,0,0,0-.72,3.87V371.8h-3.23V345.38Z" transform="translate(-4.05 -7.22)" fill="#122147"/><path d="M377.71,363.07a10.2,10.2,0,0,0,1.56,3.35,9.05,9.05,0,0,0,2.72,2.46,7.57,7.57,0,0,0,3.94,1,7.83,7.83,0,0,0,5.53-1.84,9.78,9.78,0,0,0,2.77-4.92h3.22a12.9,12.9,0,0,1-3.76,7c-1.83,1.63-4.41,2.45-7.76,2.45a12.22,12.22,0,0,1-5.4-1.1,9.85,9.85,0,0,1-3.71-3,13,13,0,0,1-2.13-4.45,20.32,20.32,0,0,1-.69-5.35,19.21,19.21,0,0,1,.69-5.12,13.55,13.55,0,0,1,2.13-4.48,10.53,10.53,0,0,1,3.71-3.18,11.44,11.44,0,0,1,5.4-1.2,10.45,10.45,0,0,1,9.09,4.63,13.87,13.87,0,0,1,2,4.76,20.86,20.86,0,0,1,.51,5.46H377.23A14.52,14.52,0,0,0,377.71,363.07Zm16-9.86a9.5,9.5,0,0,0-1.67-3,7.87,7.87,0,0,0-2.61-2.1,7.44,7.44,0,0,0-3.48-.8,7.56,7.56,0,0,0-3.53.8,7.87,7.87,0,0,0-2.61,2.1,10.38,10.38,0,0,0-1.72,3,14.29,14.29,0,0,0-.84,3.5h17.1A11.91,11.91,0,0,0,393.69,353.21Z" transform="translate(-4.05 -7.22)" fill="#122147"/><path d="M403,349.47a7.58,7.58,0,0,1,2.23-2.76,9.38,9.38,0,0,1,3.3-1.59,16.11,16.11,0,0,1,4.2-.51,18.64,18.64,0,0,1,3.48.33,8.39,8.39,0,0,1,3.13,1.26,6.78,6.78,0,0,1,2.25,2.58,9.34,9.34,0,0,1,.87,4.33v14a1.69,1.69,0,0,0,1.89,1.94,2.46,2.46,0,0,0,1-.2v2.71l-1,.16a10.88,10.88,0,0,1-1.1.05,4.71,4.71,0,0,1-2-.34,2.65,2.65,0,0,1-1.16-.94,3.54,3.54,0,0,1-.53-1.46,12,12,0,0,1-.13-1.87h-.1a22,22,0,0,1-1.77,2.28,8.75,8.75,0,0,1-2,1.66,9,9,0,0,1-2.51,1,14.12,14.12,0,0,1-3.35.35,13.28,13.28,0,0,1-3.46-.43,7.78,7.78,0,0,1-2.81-1.38,6.86,6.86,0,0,1-1.9-2.41,8,8,0,0,1-.69-3.46,6.81,6.81,0,0,1,1.23-4.32,7.68,7.68,0,0,1,3.25-2.38,18.78,18.78,0,0,1,4.56-1.16l5.15-.64a17.18,17.18,0,0,0,1.79-.25,3,3,0,0,0,1.28-.54,2.56,2.56,0,0,0,.79-1.05,4.46,4.46,0,0,0,.28-1.74,6,6,0,0,0-.53-2.69,4.28,4.28,0,0,0-1.49-1.66,6.05,6.05,0,0,0-2.2-.85,15.23,15.23,0,0,0-2.69-.23,8.17,8.17,0,0,0-5,1.46,5.72,5.72,0,0,0-2,4.69H402A10.84,10.84,0,0,1,403,349.47Zm16.13,7.89a1.86,1.86,0,0,1-1.18.82,12.56,12.56,0,0,1-1.53.36c-1.37.23-2.78.45-4.23.64a21.9,21.9,0,0,0-4,.84,7.8,7.8,0,0,0-2.95,1.61,3.85,3.85,0,0,0-1.15,3,4.79,4.79,0,0,0,.48,2.18,5.3,5.3,0,0,0,1.31,1.63,5.82,5.82,0,0,0,1.89,1.05,7,7,0,0,0,2.21.36,11.24,11.24,0,0,0,3.53-.56,8.61,8.61,0,0,0,2.94-1.64,7.77,7.77,0,0,0,2.74-6.09v-4.2Z" transform="translate(-4.05 -7.22)" fill="#122147"/><path d="M439.75,345.38v2.71h-5.38v17.82a5.59,5.59,0,0,0,.44,2.48c.28.6,1,.93,2.17,1a25.71,25.71,0,0,0,2.77-.15V372c-.48,0-1,0-1.44.05s-.95.05-1.43.05c-2.15,0-3.65-.41-4.51-1.25s-1.26-2.38-1.23-4.64V348.09h-4.6v-2.71h4.6v-7.94h3.23v7.94Z" transform="translate(-4.05 -7.22)" fill="#122147"/><path d="M447.78,345.38v4.45h.16a10.07,10.07,0,0,1,3.35-3.84,9.38,9.38,0,0,1,5.3-1.38,9.06,9.06,0,0,1,4.74,1.28,6.3,6.3,0,0,1,2.84,3.89,8.09,8.09,0,0,1,3.48-3.89,10,10,0,0,1,4.92-1.28q8.74,0,8.75,9.27V371.8H478.1V354a7.75,7.75,0,0,0-1.39-5q-1.38-1.73-4.86-1.72a6.89,6.89,0,0,0-3.48.8,6,6,0,0,0-2.2,2.12,9.13,9.13,0,0,0-1.16,3.05,18.78,18.78,0,0,0-.33,3.56V371.8h-3.22V353.88a11,11,0,0,0-.29-2.54,5.72,5.72,0,0,0-.92-2.1,4.41,4.41,0,0,0-1.71-1.41,6.07,6.07,0,0,0-2.61-.51,8,8,0,0,0-3.56.74,6.58,6.58,0,0,0-2.46,2.05,9.21,9.21,0,0,0-1.41,3.07,15.21,15.21,0,0,0-.46,3.87V371.8h-3.23V345.38Z" transform="translate(-4.05 -7.22)" fill="#122147"/><path d="M490.26,363.07a9.81,9.81,0,0,0,1.56,3.35,9,9,0,0,0,2.71,2.46,7.61,7.61,0,0,0,4,1A7.86,7.86,0,0,0,504,368a9.7,9.7,0,0,0,2.76-4.92H510a12.91,12.91,0,0,1-3.77,7c-1.82,1.63-4.41,2.45-7.75,2.45a12.23,12.23,0,0,1-5.41-1.1,9.92,9.92,0,0,1-3.71-3,13.2,13.2,0,0,1-2.12-4.45,20.32,20.32,0,0,1-.69-5.35,19.21,19.21,0,0,1,.69-5.12,13.73,13.73,0,0,1,2.12-4.48,10.62,10.62,0,0,1,3.71-3.18,11.46,11.46,0,0,1,5.41-1.2,10.84,10.84,0,0,1,5.42,1.28,10.63,10.63,0,0,1,3.66,3.35,13.88,13.88,0,0,1,2,4.76,20.86,20.86,0,0,1,.51,5.46H489.77A14.1,14.1,0,0,0,490.26,363.07Zm16-9.86a9.48,9.48,0,0,0-1.66-3,8.07,8.07,0,0,0-2.61-2.1,7.5,7.5,0,0,0-3.48-.8,7.6,7.6,0,0,0-3.54.8,8.07,8.07,0,0,0-2.61,2.1,10.35,10.35,0,0,0-1.71,3,14.78,14.78,0,0,0-.85,3.5h17.1A11.3,11.3,0,0,0,506.23,353.21Z" transform="translate(-4.05 -7.22)" fill="#122147"/><path d="M518,345.38v4.55h.11a7.7,7.7,0,0,1,3.27-3.86,9.59,9.59,0,0,1,5.18-1.46,13.22,13.22,0,0,1,4.63.71,7.32,7.32,0,0,1,3,2,7.48,7.48,0,0,1,1.59,3.2,17.86,17.86,0,0,1,.46,4.25v17H533V355.31a15.58,15.58,0,0,0-.31-3.15,6.58,6.58,0,0,0-1.08-2.53,5.17,5.17,0,0,0-2.07-1.69,7.6,7.6,0,0,0-3.25-.62,8.25,8.25,0,0,0-3.46.69,7.58,7.58,0,0,0-2.56,1.9,8.92,8.92,0,0,0-1.64,2.86,12,12,0,0,0-.64,3.62V371.8h-3.22V345.38Z" transform="translate(-4.05 -7.22)" fill="#122147"/><path d="M553.21,345.38v2.71h-5.37v17.82a5.75,5.75,0,0,0,.43,2.48c.29.6,1,.93,2.18,1a25.52,25.52,0,0,0,2.76-.15V372c-.48,0-1,0-1.43.05s-1,.05-1.44.05c-2.15,0-3.65-.41-4.5-1.25s-1.26-2.38-1.23-4.64V348.09H540v-2.71h4.61v-7.94h3.23v7.94Z" transform="translate(-4.05 -7.22)" fill="#122147"/><path d="M598.71,342.53a10.68,10.68,0,0,0-2.56-2.79,11.43,11.43,0,0,0-3.33-1.71,12.41,12.41,0,0,0-3.82-.59,13.18,13.18,0,0,0-6.24,1.38,12.38,12.38,0,0,0-4.28,3.66,15.83,15.83,0,0,0-2.46,5.15,22.24,22.24,0,0,0,0,11.75,15.74,15.74,0,0,0,2.46,5.17,12.38,12.38,0,0,0,4.28,3.66A13.07,13.07,0,0,0,589,369.6a11,11,0,0,0,4.61-.93,10.76,10.76,0,0,0,3.53-2.51,12.63,12.63,0,0,0,2.41-3.71,15.21,15.21,0,0,0,1.18-4.58h3.48a19.75,19.75,0,0,1-1.59,6.09,14.88,14.88,0,0,1-3.17,4.61,13.59,13.59,0,0,1-4.58,2.92,16.18,16.18,0,0,1-5.87,1,17.29,17.29,0,0,1-7.55-1.56,15.6,15.6,0,0,1-5.4-4.17,17.92,17.92,0,0,1-3.23-6,24.89,24.89,0,0,1,0-14.44,18.16,18.16,0,0,1,3.23-6.07,15.44,15.44,0,0,1,5.4-4.2,18.3,18.3,0,0,1,12.65-.79,14.69,14.69,0,0,1,4.5,2.28,13.05,13.05,0,0,1,3.38,3.71,12.45,12.45,0,0,1,1.72,5.07h-3.48A11.78,11.78,0,0,0,598.71,342.53Z" transform="translate(-4.05 -7.22)" fill="#122147"/><path d="M611.66,363.07a9.81,9.81,0,0,0,1.56,3.35,8.94,8.94,0,0,0,2.72,2.46,7.55,7.55,0,0,0,3.94,1,7.84,7.84,0,0,0,5.53-1.84,9.7,9.7,0,0,0,2.76-4.92h3.23a12.9,12.9,0,0,1-3.76,7q-2.75,2.44-7.76,2.45a12.22,12.22,0,0,1-5.4-1.1,10,10,0,0,1-3.72-3,13.2,13.2,0,0,1-2.12-4.45,20.32,20.32,0,0,1-.69-5.35,19.21,19.21,0,0,1,.69-5.12,13.73,13.73,0,0,1,2.12-4.48,10.66,10.66,0,0,1,3.72-3.18,11.44,11.44,0,0,1,5.4-1.2,10.45,10.45,0,0,1,9.09,4.63,13.87,13.87,0,0,1,2,4.76,20.86,20.86,0,0,1,.51,5.46H611.17A14.55,14.55,0,0,0,611.66,363.07Zm16-9.86a9.7,9.7,0,0,0-1.67-3,8.07,8.07,0,0,0-2.61-2.1,7.44,7.44,0,0,0-3.48-.8,7.56,7.56,0,0,0-3.53.8,8,8,0,0,0-2.62,2.1,10.59,10.59,0,0,0-1.71,3,14.78,14.78,0,0,0-.85,3.5h17.11A11.91,11.91,0,0,0,627.64,353.21Z" transform="translate(-4.05 -7.22)" fill="#122147"/><path d="M639.44,345.38v4.55h.1a7.77,7.77,0,0,1,3.28-3.86,9.56,9.56,0,0,1,5.17-1.46,13.18,13.18,0,0,1,4.63.71,7.35,7.35,0,0,1,3,2,7.6,7.6,0,0,1,1.59,3.2,18.39,18.39,0,0,1,.46,4.25v17h-3.23V355.31a14.89,14.89,0,0,0-.31-3.15,6.57,6.57,0,0,0-1.07-2.53,5.14,5.14,0,0,0-2.08-1.69,7.6,7.6,0,0,0-3.25-.62,8.21,8.21,0,0,0-3.45.69,7.49,7.49,0,0,0-2.56,1.9,8.74,8.74,0,0,0-1.64,2.86,11.74,11.74,0,0,0-.64,3.62V371.8h-3.23V345.38Z" transform="translate(-4.05 -7.22)" fill="#122147"/><path d="M674.67,345.38v2.71h-5.38v17.82a5.75,5.75,0,0,0,.43,2.48c.29.6,1,.93,2.18,1a25.85,25.85,0,0,0,2.77-.15V372c-.48,0-1,0-1.44.05s-1,.05-1.43.05c-2.15,0-3.65-.41-4.51-1.25s-1.26-2.38-1.23-4.64V348.09h-4.6v-2.71h4.6v-7.94h3.23v7.94Z" transform="translate(-4.05 -7.22)" fill="#122147"/><path d="M682.12,363.07a9.81,9.81,0,0,0,1.56,3.35,8.9,8.9,0,0,0,2.71,2.46,7.57,7.57,0,0,0,3.94,1,7.83,7.83,0,0,0,5.53-1.84,9.71,9.71,0,0,0,2.77-4.92h3.22a12.84,12.84,0,0,1-3.76,7c-1.83,1.63-4.41,2.45-7.76,2.45a12.22,12.22,0,0,1-5.4-1.1,9.85,9.85,0,0,1-3.71-3,13,13,0,0,1-2.13-4.45,20.32,20.32,0,0,1-.69-5.35,19.21,19.21,0,0,1,.69-5.12,13.55,13.55,0,0,1,2.13-4.48,10.53,10.53,0,0,1,3.71-3.18,11.44,11.44,0,0,1,5.4-1.2,10.45,10.45,0,0,1,9.09,4.63,13.68,13.68,0,0,1,2,4.76,21.3,21.3,0,0,1,.52,5.46H681.63A14.1,14.1,0,0,0,682.12,363.07Zm16-9.86a9.68,9.68,0,0,0-1.66-3,8.07,8.07,0,0,0-2.61-2.1,8.1,8.1,0,0,0-7,0,8.07,8.07,0,0,0-2.61,2.1,10.38,10.38,0,0,0-1.72,3,14.76,14.76,0,0,0-.84,3.5h17.1A11.6,11.6,0,0,0,698.09,353.21Z" transform="translate(-4.05 -7.22)" fill="#122147"/><path d="M709.69,345.38v6.19h.1a10.21,10.21,0,0,1,3.81-5,10,10,0,0,1,6.17-1.58v3.22a9.91,9.91,0,0,0-4,.59,8.8,8.8,0,0,0-5.12,5,10.18,10.18,0,0,0-.72,3.87V371.8h-3.22V345.38Z" transform="translate(-4.05 -7.22)" fill="#122147"/><path d="M456.29,66.07a8,8,0,0,0-3.09.63l-42-28.78a16.62,16.62,0,0,0-5.88-30.5,16.3,16.3,0,0,0-18.58,13.77A16.59,16.59,0,0,0,396.61,39L356.18,67a8.29,8.29,0,1,0,4.65,9.51l27.84-8.58-20.38,61.66,18.8,1.34L405.17,91.7l17.77,39.2,19.88-1.31L420.93,67.92l27.61,9.15a8.23,8.23,0,1,0,7.75-11" transform="translate(-4.05 -7.22)" fill="#716fb3"/><path d="M230.53,168.9a32.73,32.73,0,0,1,6.64.65,16.1,16.1,0,0,1,5.61,2.23,11.83,11.83,0,0,1,3.87,4.14,14.07,14.07,0,0,1,.77,10.6,12.56,12.56,0,0,1-2,3.69,12.44,12.44,0,0,1-3,2.8,11,11,0,0,1-3.88,1.61v.16a12.94,12.94,0,0,1,8.45,4.34,13.31,13.31,0,0,1,3.15,9,22.25,22.25,0,0,1-.23,3,14.21,14.21,0,0,1-2.92,6.8,11.84,11.84,0,0,1-3.5,2.95,21,21,0,0,1-5.37,2.08,31.49,31.49,0,0,1-7.64.8h-23.2V168.9Zm0,24a18.39,18.39,0,0,0,5.45-.73,11.62,11.62,0,0,0,3.84-2,8.26,8.26,0,0,0,2.3-3,8.63,8.63,0,0,0,.77-3.61q0-10.29-12.36-10.29h-18v19.59Zm0,26.34a29.77,29.77,0,0,0,5.53-.5,12.58,12.58,0,0,0,4.6-1.8,9.34,9.34,0,0,0,3.15-3.5A11.69,11.69,0,0,0,245,208q0-5.3-3.72-8c-2.48-1.77-6.06-2.65-10.71-2.65h-18v21.89Z" transform="translate(-4.05 -7.22)" fill="#122147"/><path d="M261.59,210.64a14.9,14.9,0,0,0,2.35,5,13.49,13.49,0,0,0,4.07,3.69,11.38,11.38,0,0,0,5.91,1.45c3.53,0,6.3-.92,8.29-2.76a14.53,14.53,0,0,0,4.15-7.37h4.84a19.36,19.36,0,0,1-5.64,10.44q-4.11,3.69-11.64,3.69a18.44,18.44,0,0,1-8.1-1.65,14.87,14.87,0,0,1-5.57-4.53,19.57,19.57,0,0,1-3.19-6.69,30.39,30.39,0,0,1-1-8,28.85,28.85,0,0,1,1-7.68,20.45,20.45,0,0,1,3.19-6.72,15.94,15.94,0,0,1,5.57-4.76,17,17,0,0,1,8.1-1.81,15.67,15.67,0,0,1,13.63,7,21,21,0,0,1,3,7.14,31.23,31.23,0,0,1,.76,8.18H260.86A21.76,21.76,0,0,0,261.59,210.64Zm24-14.79a14.68,14.68,0,0,0-2.5-4.49,12.42,12.42,0,0,0-3.92-3.15,11.21,11.21,0,0,0-5.22-1.19,11.43,11.43,0,0,0-5.3,1.19,12.42,12.42,0,0,0-3.92,3.15,15.93,15.93,0,0,0-2.57,4.53,22.55,22.55,0,0,0-1.27,5.26h25.66A18.06,18.06,0,0,0,285.56,195.85Z" transform="translate(-4.05 -7.22)" fill="#122147"/><path d="M303,184.1v6.84h.15a11.58,11.58,0,0,1,4.92-5.8,14.43,14.43,0,0,1,7.76-2.19,19.47,19.47,0,0,1,6.95,1.08,11,11,0,0,1,4.49,3,11.3,11.3,0,0,1,2.38,4.8,27,27,0,0,1,.69,6.37v25.5h-4.84V199a22.7,22.7,0,0,0-.46-4.72,9.81,9.81,0,0,0-1.61-3.8,7.9,7.9,0,0,0-3.11-2.54,11.52,11.52,0,0,0-4.88-.92,12.32,12.32,0,0,0-5.18,1,11.25,11.25,0,0,0-3.84,2.84,13.14,13.14,0,0,0-2.46,4.3,17.49,17.49,0,0,0-1,5.42v23.11h-4.84V184.1Z" transform="translate(-4.05 -7.22)" fill="#122147"/><path d="M344.81,168.9v7.75H340V168.9Zm0,15.2v39.63H340V184.1Z" transform="translate(-4.05 -7.22)" fill="#122147"/><path d="M379.26,184.64a17.59,17.59,0,0,1,5.87,4.53,19.61,19.61,0,0,1,3.61,6.65,27.29,27.29,0,0,1,0,16.2,19.47,19.47,0,0,1-3.61,6.64,17,17,0,0,1-5.87,4.5,20.34,20.34,0,0,1-16.05,0,17,17,0,0,1-5.88-4.5,19.47,19.47,0,0,1-3.61-6.64,27.29,27.29,0,0,1,0-16.2,19.61,19.61,0,0,1,3.61-6.65,17.53,17.53,0,0,1,5.88-4.53,19.9,19.9,0,0,1,16.05,0Zm-14.1,3.84a13.35,13.35,0,0,0-4.34,3.84,17.47,17.47,0,0,0-2.61,5.42,22.14,22.14,0,0,0,0,12.36,17.58,17.58,0,0,0,2.61,5.42,13.58,13.58,0,0,0,4.34,3.84,13.43,13.43,0,0,0,12.14,0,13.48,13.48,0,0,0,4.34-3.84,17.58,17.58,0,0,0,2.61-5.42,22.14,22.14,0,0,0,0-12.36,17.47,17.47,0,0,0-2.61-5.42,13.25,13.25,0,0,0-4.34-3.84,13.35,13.35,0,0,0-12.14,0Z" transform="translate(-4.05 -7.22)" fill="#122147"/><path d="M405,188.17v35.56h-4.84V188.17h-6.76V184.1h6.76v-3.61a26.24,26.24,0,0,1,.38-4.68,9.17,9.17,0,0,1,1.46-3.69,7,7,0,0,1,3-2.38,11.8,11.8,0,0,1,4.8-.84c.71,0,1.38,0,2,.07s1.3.13,2.07.23v4.15l-1.84-.27a12.09,12.09,0,0,0-1.69-.11,6.29,6.29,0,0,0-3.08.61,3.78,3.78,0,0,0-1.57,1.65,6.38,6.38,0,0,0-.58,2.42c-.05.92-.07,1.92-.07,3v3.45h7.83v4.07Z" transform="translate(-4.05 -7.22)" fill="#122147"/><path d="M428.23,188.17v35.56h-4.84V188.17h-6.76V184.1h6.76v-3.61a26.24,26.24,0,0,1,.38-4.68,9.17,9.17,0,0,1,1.46-3.69,7,7,0,0,1,3-2.38,11.8,11.8,0,0,1,4.8-.84c.72,0,1.38,0,2,.07s1.3.13,2.07.23v4.15l-1.84-.27a12.09,12.09,0,0,0-1.69-.11,6.29,6.29,0,0,0-3.08.61,3.78,3.78,0,0,0-1.57,1.65,6.38,6.38,0,0,0-.58,2.42c-.05.92-.07,1.92-.07,3v3.45h7.83v4.07Z" transform="translate(-4.05 -7.22)" fill="#122147"/><path d="M500.46,179.84a15.57,15.57,0,0,0-3.84-4.19,17.37,17.37,0,0,0-5-2.57,18.44,18.44,0,0,0-5.72-.88,19.79,19.79,0,0,0-9.37,2.07,18.62,18.62,0,0,0-6.42,5.49,23.75,23.75,0,0,0-3.68,7.72,33.24,33.24,0,0,0,0,17.63,23.66,23.66,0,0,0,3.68,7.76,18.62,18.62,0,0,0,6.42,5.49,19.79,19.79,0,0,0,9.37,2.07,16.69,16.69,0,0,0,6.91-1.38,16.48,16.48,0,0,0,5.3-3.76,19.51,19.51,0,0,0,3.61-5.57,23.13,23.13,0,0,0,1.76-6.88h5.23a29.86,29.86,0,0,1-2.38,9.14,22.27,22.27,0,0,1-4.77,6.91,20,20,0,0,1-6.87,4.38,24,24,0,0,1-8.79,1.54,25.88,25.88,0,0,1-11.33-2.34,23.45,23.45,0,0,1-8.11-6.26,26.73,26.73,0,0,1-4.84-9.07,37.2,37.2,0,0,1,0-21.65,27.2,27.2,0,0,1,4.84-9.11,23.29,23.29,0,0,1,8.11-6.29,27.33,27.33,0,0,1,19-1.19,22.07,22.07,0,0,1,6.76,3.41,20,20,0,0,1,5.07,5.57,18.86,18.86,0,0,1,2.57,7.61h-5.22A17.49,17.49,0,0,0,500.46,179.84Z" transform="translate(-4.05 -7.22)" fill="#122147"/><path d="M521.08,168.9v22h.16a11.6,11.6,0,0,1,4.91-5.8,14.45,14.45,0,0,1,7.76-2.19,19.47,19.47,0,0,1,7,1.08,10.82,10.82,0,0,1,4.49,3,11.3,11.3,0,0,1,2.38,4.8,27,27,0,0,1,.69,6.37v25.5h-4.83V199a23.4,23.4,0,0,0-.46-4.72,10,10,0,0,0-1.62-3.8,7.83,7.83,0,0,0-3.11-2.54,11.48,11.48,0,0,0-4.88-.92,12.35,12.35,0,0,0-5.18,1,11.25,11.25,0,0,0-3.84,2.84,13.14,13.14,0,0,0-2.46,4.3,17.49,17.49,0,0,0-1,5.42v23.11h-4.84V168.9Z" transform="translate(-4.05 -7.22)" fill="#122147"/><path d="M563.09,168.9v7.75h-4.83V168.9Zm0,15.2v39.63h-4.83V184.1Z" transform="translate(-4.05 -7.22)" fill="#122147"/><path d="M577.92,168.9v54.83h-4.84V168.9Z" transform="translate(-4.05 -7.22)" fill="#122147"/><path d="M618.24,223.73v-7.52h-.15a11.56,11.56,0,0,1-2.27,3.53,14.84,14.84,0,0,1-3.42,2.73,17.77,17.77,0,0,1-4.11,1.72,15.91,15.91,0,0,1-4.34.62,17.59,17.59,0,0,1-7.87-1.65,15.78,15.78,0,0,1-5.57-4.53,19.58,19.58,0,0,1-3.3-6.69,30.63,30.63,0,0,1,0-16.05,19.62,19.62,0,0,1,3.3-6.68,16.22,16.22,0,0,1,5.57-4.57A17.19,17.19,0,0,1,604,183a17.43,17.43,0,0,1,4.34.54,14.69,14.69,0,0,1,4,1.65,13.57,13.57,0,0,1,3.26,2.73,11.34,11.34,0,0,1,2.19,3.76h.16V168.9h4.84v54.83ZM591.7,210a17,17,0,0,0,2.31,5.42,12.66,12.66,0,0,0,4,3.88,11.14,11.14,0,0,0,5.91,1.49,12.41,12.41,0,0,0,10.8-5.37,16,16,0,0,0,2.38-5.42,25.89,25.89,0,0,0,0-12.21,16,16,0,0,0-2.38-5.41A12.45,12.45,0,0,0,604,187a11.14,11.14,0,0,0-5.91,1.5,12.66,12.66,0,0,0-4,3.88,17,17,0,0,0-2.31,5.41,25.89,25.89,0,0,0,0,12.21Z" transform="translate(-4.05 -7.22)" fill="#122147"/><path d="M637,184.1v9.3h.15a15.18,15.18,0,0,1,5.73-7.45,14.93,14.93,0,0,1,9.25-2.38v4.83a14.66,14.66,0,0,0-6,.89,13.18,13.18,0,0,0-7.68,7.52,15.24,15.24,0,0,0-1.08,5.8v21.12h-4.83V184.1Z" transform="translate(-4.05 -7.22)" fill="#122147"/><path d="M660.9,210.64a14.9,14.9,0,0,0,2.35,5,13.49,13.49,0,0,0,4.07,3.69,11.41,11.41,0,0,0,5.91,1.45q5.29,0,8.3-2.76a14.51,14.51,0,0,0,4.14-7.37h4.84a19.3,19.3,0,0,1-5.64,10.44q-4.11,3.69-11.64,3.69a18.47,18.47,0,0,1-8.1-1.65,14.87,14.87,0,0,1-5.57-4.53,19.75,19.75,0,0,1-3.19-6.69,30.39,30.39,0,0,1-1-8,28.84,28.84,0,0,1,1-7.68,20.66,20.66,0,0,1,3.19-6.72,15.94,15.94,0,0,1,5.57-4.76,17,17,0,0,1,8.1-1.81,15.7,15.7,0,0,1,13.64,7,21.22,21.22,0,0,1,3,7.14,31.67,31.67,0,0,1,.77,8.18h-30.5A21.76,21.76,0,0,0,660.9,210.64Zm24-14.79a14.47,14.47,0,0,0-2.5-4.49,12.31,12.31,0,0,0-3.92-3.15,11.21,11.21,0,0,0-5.22-1.19,11.43,11.43,0,0,0-5.3,1.19,12.53,12.53,0,0,0-3.92,3.15,15.93,15.93,0,0,0-2.57,4.53,22.55,22.55,0,0,0-1.27,5.26h25.66A17.43,17.43,0,0,0,684.87,195.85Z" transform="translate(-4.05 -7.22)" fill="#122147"/><path d="M702.49,184.1v6.84h.16a11.6,11.6,0,0,1,4.91-5.8,14.45,14.45,0,0,1,7.76-2.19,19.44,19.44,0,0,1,6.95,1.08,10.82,10.82,0,0,1,4.49,3,11.32,11.32,0,0,1,2.39,4.8,27,27,0,0,1,.69,6.37v25.5H725V199a23.4,23.4,0,0,0-.46-4.72,10,10,0,0,0-1.62-3.8,7.76,7.76,0,0,0-3.11-2.54,11.47,11.47,0,0,0-4.87-.92,12.36,12.36,0,0,0-5.19,1,11.25,11.25,0,0,0-3.84,2.84,13.14,13.14,0,0,0-2.46,4.3,17.79,17.79,0,0,0-1,5.42v23.11h-4.83V184.1Z" transform="translate(-4.05 -7.22)" fill="#122147"/><path d="M745.75,177.11a13.48,13.48,0,0,1-.43,3.34,11.6,11.6,0,0,1-1.26,3.08,9.91,9.91,0,0,1-2.12,2.49,7.5,7.5,0,0,1-3,1.54v-3.3a3.63,3.63,0,0,0,1.69-1.12,7.33,7.33,0,0,0,1.15-1.88,9.29,9.29,0,0,0,.65-2.19,8,8,0,0,0,.12-2h-3.23V168.9h6.46Z" transform="translate(-4.05 -7.22)" fill="#122147"/><path d="M776.08,191.82a7.92,7.92,0,0,0-2.26-2.73,9.54,9.54,0,0,0-3.27-1.57,15,15,0,0,0-3.91-.5,16,16,0,0,0-3.27.35,10,10,0,0,0-3,1.15,6.54,6.54,0,0,0-2.23,2.11,5.86,5.86,0,0,0-.84,3.23,4.49,4.49,0,0,0,.8,2.72,7.07,7.07,0,0,0,2,1.88,12.47,12.47,0,0,0,2.68,1.27c1,.34,1.87.6,2.69.81l6.46,1.46a18,18,0,0,1,4.1,1.11,13.28,13.28,0,0,1,3.61,2.11,10.52,10.52,0,0,1,2.58,3.23,9.76,9.76,0,0,1,1,4.53,10,10,0,0,1-1.46,5.49,12,12,0,0,1-3.73,3.69,15.72,15.72,0,0,1-5.11,2,26.39,26.39,0,0,1-5.6.62q-7,0-11.33-3.3t-5-10.6h4.84a9.59,9.59,0,0,0,3.57,7.41,13,13,0,0,0,8.11,2.49,18,18,0,0,0,3.65-.38,11.63,11.63,0,0,0,3.49-1.3,8.36,8.36,0,0,0,2.65-2.35,5.75,5.75,0,0,0,1-3.49,5.65,5.65,0,0,0-.73-3,6.44,6.44,0,0,0-2-2,13,13,0,0,0-2.8-1.34c-1-.36-2.12-.66-3.19-.92l-6.22-1.38a36.36,36.36,0,0,1-4.38-1.42,14.28,14.28,0,0,1-3.5-2,8.43,8.43,0,0,1-2.34-2.92,9.68,9.68,0,0,1-.84-4.26,9.48,9.48,0,0,1,1.34-5.15,10.5,10.5,0,0,1,3.5-3.45,16.2,16.2,0,0,1,4.8-1.92,23.17,23.17,0,0,1,5.26-.62,19.53,19.53,0,0,1,5.57.77,12.77,12.77,0,0,1,4.53,2.38,11.8,11.8,0,0,1,3.11,4,14.3,14.3,0,0,1,1.3,5.61H777A9,9,0,0,0,776.08,191.82Z" transform="translate(-4.05 -7.22)" fill="#122147"/><path d="M212.55,251.61v23.81h32.57V251.61h5.22v54.84h-5.22V279.87H212.55v26.58h-5.22V251.61Z" transform="translate(-4.05 -7.22)" fill="#122147"/><path d="M284,267.35a17.39,17.39,0,0,1,5.87,4.54,19.56,19.56,0,0,1,3.61,6.64,27.32,27.32,0,0,1,0,16.21,19.56,19.56,0,0,1-3.61,6.64,17,17,0,0,1-5.87,4.49,20.34,20.34,0,0,1-16.05,0,17.14,17.14,0,0,1-5.88-4.49,19.56,19.56,0,0,1-3.61-6.64,27.32,27.32,0,0,1,0-16.21,19.56,19.56,0,0,1,3.61-6.64,17.52,17.52,0,0,1,5.88-4.54,19.9,19.9,0,0,1,16.05,0Zm-14.1,3.84a13.36,13.36,0,0,0-4.33,3.85,17.22,17.22,0,0,0-2.62,5.41,22.18,22.18,0,0,0,0,12.37,17.32,17.32,0,0,0,2.62,5.41,13.21,13.21,0,0,0,4.33,3.84,13.35,13.35,0,0,0,12.14,0,13.25,13.25,0,0,0,4.34-3.84,17.52,17.52,0,0,0,2.61-5.41,22.18,22.18,0,0,0,0-12.37,17.41,17.41,0,0,0-2.61-5.41,13.39,13.39,0,0,0-4.34-3.85,13.43,13.43,0,0,0-12.14,0Z" transform="translate(-4.05 -7.22)" fill="#122147"/><path d="M325.08,274.54a7.86,7.86,0,0,0-2.27-2.73,9.51,9.51,0,0,0-3.26-1.58,15.09,15.09,0,0,0-3.92-.49,15.91,15.91,0,0,0-3.26.34,10.19,10.19,0,0,0-3,1.15,6.54,6.54,0,0,0-2.22,2.12,5.74,5.74,0,0,0-.85,3.22,4.51,4.51,0,0,0,.81,2.73,7,7,0,0,0,2,1.88,13.58,13.58,0,0,0,2.69,1.27c1,.33,1.87.6,2.69.8l6.45,1.46a18.75,18.75,0,0,1,4.11,1.12,13,13,0,0,1,3.61,2.11,10.31,10.31,0,0,1,2.57,3.22,9.68,9.68,0,0,1,1,4.54,10,10,0,0,1-1.46,5.49,11.77,11.77,0,0,1-3.72,3.68,15.82,15.82,0,0,1-5.11,2,26.46,26.46,0,0,1-5.61.61q-7,0-11.33-3.3T300,293.62h4.84a9.51,9.51,0,0,0,3.57,7.41,12.92,12.92,0,0,0,8.1,2.5,18.63,18.63,0,0,0,3.65-.38,12.09,12.09,0,0,0,3.5-1.31,8.43,8.43,0,0,0,2.65-2.34,5.78,5.78,0,0,0,1-3.5,5.52,5.52,0,0,0-.73-2.95,6.23,6.23,0,0,0-2-2,12.33,12.33,0,0,0-2.8-1.35c-1.05-.35-2.11-.66-3.19-.92l-6.22-1.38A34.67,34.67,0,0,1,308.1,286a13.9,13.9,0,0,1-3.49-2,8.23,8.23,0,0,1-2.34-2.92,10.74,10.74,0,0,1,.5-9.4,10.4,10.4,0,0,1,3.49-3.46,16.2,16.2,0,0,1,4.8-1.92,23.24,23.24,0,0,1,5.26-.62,19.48,19.48,0,0,1,5.57.77,12.92,12.92,0,0,1,4.53,2.38,11.71,11.71,0,0,1,3.11,4,14.42,14.42,0,0,1,1.31,5.6H326A9.12,9.12,0,0,0,325.08,274.54Z" transform="translate(-4.05 -7.22)" fill="#122147"/><path d="M344.05,266.82v7.52h.15a13,13,0,0,1,5.49-6.41,16.59,16.59,0,0,1,8.64-2.27,17.37,17.37,0,0,1,7.88,1.69,16.32,16.32,0,0,1,5.57,4.57,19.58,19.58,0,0,1,3.3,6.69,30.63,30.63,0,0,1,0,16.05,19.62,19.62,0,0,1-3.3,6.68,15.87,15.87,0,0,1-5.57,4.53,17.63,17.63,0,0,1-7.88,1.65A18.14,18.14,0,0,1,354,307a15.2,15.2,0,0,1-4-1.62,13,13,0,0,1-3.27-2.69,11.39,11.39,0,0,1-2.18-3.76h-.16V321h-4.84V266.82Zm26.53,13.71a16.71,16.71,0,0,0-2.3-5.42,12.77,12.77,0,0,0-4-3.88,11.15,11.15,0,0,0-5.92-1.49,14.53,14.53,0,0,0-6.68,1.38,11.64,11.64,0,0,0-4.3,3.69,14.43,14.43,0,0,0-2.26,5.37,30.67,30.67,0,0,0-.66,6.45,25.84,25.84,0,0,0,.73,6.11,16,16,0,0,0,2.38,5.41,12.87,12.87,0,0,0,4.3,3.88,13,13,0,0,0,6.49,1.5,11.15,11.15,0,0,0,5.92-1.5,12.66,12.66,0,0,0,4-3.88,16.66,16.66,0,0,0,2.3-5.41,25.89,25.89,0,0,0,0-12.21Z" transform="translate(-4.05 -7.22)" fill="#122147"/><path d="M389,251.61v7.76h-4.84v-7.76Zm0,15.21v39.63h-4.84V266.82Z" transform="translate(-4.05 -7.22)" fill="#122147"/><path d="M414.4,266.82v4.07h-8.06v26.73a8.59,8.59,0,0,0,.65,3.72c.43.9,1.52,1.4,3.26,1.5a38.34,38.34,0,0,0,4.15-.23v4.07c-.72,0-1.43,0-2.15.08s-1.43.07-2.15.07c-3.23,0-5.48-.62-6.76-1.88s-1.89-3.57-1.84-6.95V270.89h-6.91v-4.07h6.91V254.91h4.84v11.91Z" transform="translate(-4.05 -7.22)" fill="#122147"/><path d="M423.16,273a11.39,11.39,0,0,1,3.34-4.15,14.37,14.37,0,0,1,5-2.38,24.16,24.16,0,0,1,6.3-.77,28,28,0,0,1,5.22.5,12.58,12.58,0,0,1,4.68,1.89,10.17,10.17,0,0,1,3.38,3.87,14,14,0,0,1,1.31,6.49v21c0,2,.95,2.92,2.84,2.92a3.69,3.69,0,0,0,1.54-.31v4.07c-.57.1-1.07.18-1.5.23a14.88,14.88,0,0,1-1.65.08,7.37,7.37,0,0,1-3-.5,4,4,0,0,1-1.73-1.42,5.27,5.27,0,0,1-.8-2.19,18.52,18.52,0,0,1-.2-2.8h-.15a30.83,30.83,0,0,1-2.65,3.41,12.92,12.92,0,0,1-3,2.5,13.67,13.67,0,0,1-3.76,1.54,21,21,0,0,1-5,.53,19.6,19.6,0,0,1-5.18-.65,11.46,11.46,0,0,1-4.23-2.07,10,10,0,0,1-2.84-3.61,12,12,0,0,1-1-5.19,10.27,10.27,0,0,1,1.85-6.49,11.62,11.62,0,0,1,4.87-3.57,28.29,28.29,0,0,1,6.84-1.73c2.53-.33,5.11-.65,7.72-1,1-.1,1.92-.23,2.69-.38a4.6,4.6,0,0,0,1.92-.81,3.73,3.73,0,0,0,1.19-1.57,6.85,6.85,0,0,0,.42-2.61,8.83,8.83,0,0,0-.81-4,6.37,6.37,0,0,0-2.22-2.49,8.9,8.9,0,0,0-3.31-1.27,22.34,22.34,0,0,0-4-.34,12.29,12.29,0,0,0-7.53,2.18c-1.94,1.46-3,3.81-3.07,7H421.7A16.23,16.23,0,0,1,423.16,273Zm24.2,11.83a2.82,2.82,0,0,1-1.77,1.23,21,21,0,0,1-2.3.54q-3.07.53-6.34,1a34.77,34.77,0,0,0-5.95,1.26,11.65,11.65,0,0,0-4.42,2.42,5.79,5.79,0,0,0-1.73,4.5,7,7,0,0,0,.73,3.26,7.93,7.93,0,0,0,2,2.46,8.46,8.46,0,0,0,2.84,1.57,10.37,10.37,0,0,0,3.3.54,16.44,16.44,0,0,0,5.3-.85,13,13,0,0,0,4.42-2.45,11.67,11.67,0,0,0,4.11-9.14v-6.3Z" transform="translate(-4.05 -7.22)" fill="#122147"/><path d="M469,251.61v54.84h-4.83V251.61Z" transform="translate(-4.05 -7.22)" fill="#122147"/><path d="M501.81,274.54a7.75,7.75,0,0,0-2.27-2.73,9.42,9.42,0,0,0-3.26-1.58,15,15,0,0,0-3.92-.49,15.91,15.91,0,0,0-3.26.34,10.4,10.4,0,0,0-3,1.15,6.54,6.54,0,0,0-2.22,2.12,5.74,5.74,0,0,0-.85,3.22,4.51,4.51,0,0,0,.81,2.73,7.17,7.17,0,0,0,2,1.88,13.58,13.58,0,0,0,2.69,1.27c1,.33,1.87.6,2.69.8l6.45,1.46a18.75,18.75,0,0,1,4.11,1.12,13,13,0,0,1,3.61,2.11,10.31,10.31,0,0,1,2.57,3.22,9.68,9.68,0,0,1,1,4.54,10,10,0,0,1-1.46,5.49,11.77,11.77,0,0,1-3.72,3.68,15.82,15.82,0,0,1-5.11,2,26.39,26.39,0,0,1-5.61.61q-7,0-11.33-3.3t-5-10.6h4.84a9.51,9.51,0,0,0,3.57,7.41,12.92,12.92,0,0,0,8.1,2.5,18.63,18.63,0,0,0,3.65-.38,12,12,0,0,0,3.5-1.31,8.32,8.32,0,0,0,2.65-2.34,5.78,5.78,0,0,0,1-3.5,5.52,5.52,0,0,0-.73-2.95,6.23,6.23,0,0,0-2-2,12.13,12.13,0,0,0-2.8-1.35c-1.05-.35-2.11-.66-3.19-.92l-6.22-1.38a35,35,0,0,1-4.37-1.42,13.79,13.79,0,0,1-3.5-2,8.23,8.23,0,0,1-2.34-2.92,10.74,10.74,0,0,1,.5-9.4A10.4,10.4,0,0,1,483,268.2a16.3,16.3,0,0,1,4.8-1.92,23.24,23.24,0,0,1,5.26-.62,19.43,19.43,0,0,1,5.57.77,12.92,12.92,0,0,1,4.53,2.38,11.59,11.59,0,0,1,3.11,4,14.25,14.25,0,0,1,1.31,5.6h-4.84A9.12,9.12,0,0,0,501.81,274.54Z" transform="translate(-4.05 -7.22)" fill="#122147"/><path d="M177.77,177.53V167.07H138v38.56c-.21-4.52-1.86-8-5-10.49-2.16-1.7-5.39-3.07-9.72-4.08l-9.87-2.33a34.27,34.27,0,0,1-7.48-2.33,5.09,5.09,0,0,1-2.28-2.29h0a0,0,0,0,0,0,0,5.36,5.36,0,0,1-.46-2.19,5.76,5.76,0,0,1,1.82-4.35l.08-.08h0a10.49,10.49,0,0,1,.89-.69,13.37,13.37,0,0,1,7.44-1.83,15.59,15.59,0,0,1,7,1.41,8.06,8.06,0,0,1,4.54,7.21h11.29q-.3-9-6.66-13.68a25.07,25.07,0,0,0-15.36-4.71q-10.78,0-16.34,5a16.27,16.27,0,0,0-4.74,7.12h0a17.43,17.43,0,0,0-.48,1.79C91.26,185.57,87.09,190,80.09,190c-11.17,0-15.38-9.51-15.38-18.95,0-9.91,4.21-19.42,15.38-19.42,6.19,0,11.58,4.28,12.38,9.91h12c-1.51-13.09-12-20.38-24.43-20.38-16.7,0-26.85,11.9-27.75,27.58V142.49H39.88V177.7C39.88,186.1,37,190,28.16,190c-10.08,0-11.67-6.1-11.67-12.28V142.49H4.05V177.7c0,15.38,8.88,22.75,24.11,22.75S52.34,193,52.34,177.7v-4.42c.9,15.26,11,27.17,27.75,27.17,6.88,0,12.73-2.21,17-6.17a8.24,8.24,0,0,0,.83.63q3.36,2.34,12.34,4.31l6.09,1.34a27,27,0,0,1,7.81,2.63,4.82,4.82,0,0,1,2.46,4.32q0,4.77-5,6.52a21.59,21.59,0,0,1-6.9.92c-4.73,0-8.06-1.15-10-3.47a11.44,11.44,0,0,1-2.14-5.77H91.37q0,8.79,6.36,13.8t17.48,5q10.88,0,16.84-5.08A16.06,16.06,0,0,0,138,207.85v15.84h12.46v-23.4h23.71v-9.67H150.42V177.53Z" transform="translate(-4.05 -7.22)" fill="#122147"/></svg>